<svg xmlns="http://www.w3.org/2000/svg" width="90" height="90" viewBox="0 0 90 90">
  <g id="alert" transform="translate(-4018 -1898)">
    <g id="Ellipse_118" data-name="Ellipse 118" transform="translate(4018 1898)" fill="#fff" stroke="#ce0b0b" stroke-width="3">
      <circle cx="45" cy="45" r="45" stroke="none"/>
      <circle cx="45" cy="45" r="43.5" fill="none"/>
    </g>
    <g id="_2682803_attention_erro_exclamation_mark_warn_icon" data-name="2682803_attention_erro_exclamation_mark_warn_icon" transform="translate(4031.442 1910.547)">
      <path id="Path_772" data-name="Path 772" d="M30.16,11.51,6.84,51.9a2.13,2.13,0,0,0,1.84,3.19H55.32a2.13,2.13,0,0,0,1.84-3.19L33.84,11.51a2.13,2.13,0,0,0-3.68,0Z" fill="#ce0b0b"/>
      <path id="Path_773" data-name="Path 773" d="M29,46a3,3,0,1,1,3,3,2.88,2.88,0,0,1-3-3Zm1.09-4.66-.76-15h5.26l-.73,15Z" fill="#fff"/>
    </g>
  </g>
</svg>
