<svg xmlns="http://www.w3.org/2000/svg" width="42" height="42" viewBox="0 0 42 42">
  <g id="Group_6" data-name="Group 6" transform="translate(-209 -759)">
    <g id="Ellipse_12" data-name="Ellipse 12" transform="translate(209 759)" fill="#fff" stroke="#7579ff" stroke-width="1">
      <circle cx="21" cy="21" r="21" stroke="none"/>
      <circle cx="21" cy="21" r="20.5" fill="none"/>
    </g>
    <g id="iconfinder_66-wechat_1181189" transform="translate(211.923 760.665)">
      <path id="Path_6" data-name="Path 6" d="M23.588,14.573a9.963,9.963,0,0,0-6.714,2.712A7.973,7.973,0,0,0,14.4,24.04c-1.019-.126-1.947-.265-2.88-.344a1.789,1.789,0,0,0-.978.165c-.906.511-1.775,1.089-2.805,1.733.189-.855.311-1.6.528-2.323a.883.883,0,0,0-.4-1.168c-3.129-2.209-4.449-5.516-3.461-8.92a8.83,8.83,0,0,1,6.2-6.055,10.4,10.4,0,0,1,11.364,3.33A7.784,7.784,0,0,1,23.588,14.573Zm-12-1.061a1.2,1.2,0,0,0-1.156-1.2,1.168,1.168,0,0,0-1.215,1.129,1.153,1.153,0,0,0,1.143,1.2A1.187,1.187,0,0,0,11.591,13.513Zm6.26-1.2a1.2,1.2,0,0,0-1.175,1.185,1.174,1.174,0,0,0,1.206,1.147,1.166,1.166,0,1,0-.031-2.332Z" transform="translate(0)" fill="#7579ff"/>
      <path id="Path_7" data-name="Path 7" d="M38,37.553a8.853,8.853,0,0,0-2.389-1,13.359,13.359,0,0,0-2.488.465,8.312,8.312,0,0,1-6.743-2.2c-3.6-3.326-3.082-8.425,1.078-11.151a9.069,9.069,0,0,1,11.727,1.746,6.66,6.66,0,0,1-.77,9.29c-.8.713-1.093,1.3-.577,2.24A2.668,2.668,0,0,1,38,37.553Zm-9.4-9.1a.971.971,0,1,0,.007-1.943.971.971,0,1,0-.007,1.943Zm6.057-1.94a.972.972,0,0,0-.964.929.958.958,0,1,0,.964-.929Z" transform="translate(-8.554 -6.728)" fill="#7579ff"/>
    </g>
  </g>
</svg>
