<svg xmlns="http://www.w3.org/2000/svg" width="42" height="42" viewBox="0 0 42 42">
  <g id="Group_7" data-name="Group 7" transform="translate(-103 -759)">
    <g id="Ellipse_14" data-name="Ellipse 14" transform="translate(103 759)" fill="#fff" stroke="#7579ff" stroke-width="1">
      <circle cx="21" cy="21" r="21" stroke="none"/>
      <circle cx="21" cy="21" r="20.5" fill="none"/>
    </g>
    <g id="_020---Star" data-name="020---Star" transform="translate(110.003 767)">
      <path id="Shape" d="M27.84,10.8a.527.527,0,0,0,.12-.546.468.468,0,0,0-.371-.328L19.566,8.7a1.431,1.431,0,0,1-1.075-.812L14.9.275a.444.444,0,0,0-.822,0L10.495,7.892A1.431,1.431,0,0,1,9.42,8.7L1.4,9.926a.468.468,0,0,0-.371.328.527.527,0,0,0,.12.546l5.8,5.929a1.5,1.5,0,0,1,.4,1.291l-1.37,8.372a.514.514,0,0,0,.206.517.419.419,0,0,0,.456.026l7.175-3.953a1.387,1.387,0,0,1,1.344,0l7.175,3.953a.417.417,0,0,0,.456-.026A.514.514,0,0,0,23,26.391l-1.37-8.372a1.5,1.5,0,0,1,.4-1.291Zm-7.4,7.415L21.5,24.648a.241.241,0,0,1-.354.25l-5.4-2.972a2.637,2.637,0,0,0-2.506,0L7.845,24.9a.241.241,0,0,1-.354-.25l1.053-6.434h0a2.71,2.71,0,0,0-.732-2.329L3.27,11.245a.241.241,0,0,1,.136-.407L9.6,9.9a2.635,2.635,0,0,0,1.982-1.489l2.691-5.713a.251.251,0,0,1,.436,0L17.4,8.405A2.637,2.637,0,0,0,19.384,9.9l6.2.943a.241.241,0,0,1,.136.407l-4.543,4.64A2.71,2.71,0,0,0,20.443,18.215Z" fill="#7579ff"/>
      <path id="Shape-2" data-name="Shape" d="M22.479,13.985a3.117,3.117,0,0,1-2.347-1.761L17.66,6.976l-2.473,5.25a3.115,3.115,0,0,1-2.346,1.76l-5.731.873,4.213,4.3a3.192,3.192,0,0,1,.863,2.744l-.973,5.945,4.962-2.733a3.075,3.075,0,0,1,2.971,0l4.961,2.733-.973-5.944A3.193,3.193,0,0,1,24,19.162l4.214-4.3Z" transform="translate(-3.167 -3.614)" fill="#7579ff"/>
    </g>
  </g>
</svg>
