<svg xmlns="http://www.w3.org/2000/svg" width="42" height="42" viewBox="0 0 42 42">
  <g id="group" transform="translate(-209 -759)">
    <g id="Ellipse_12" data-name="Ellipse 12" transform="translate(209 759)" fill="none" stroke="#7579ff" stroke-width="1">
      <circle cx="21" cy="21" r="21" stroke="none"/>
      <circle cx="21" cy="21" r="20.5" fill="none"/>
    </g>
    <g id="_309041_users_group_people_icon" data-name="309041_users_group_people_icon" transform="translate(213.999 765.663)">
      <g id="Group_824" data-name="Group 824" transform="translate(7.817 5.946)">
        <path id="Path_766" data-name="Path 766" d="M10.091,10.091A4.018,4.018,0,0,1,14.182,6a4.018,4.018,0,0,1,4.091,4.091,4.018,4.018,0,0,1-4.091,4.091,4.018,4.018,0,0,1-4.092-4.091Zm4.091,6.818c-6.273,0-8.183,4.5-8.183,4.5v2.318H22.364V21.41s-1.909-4.5-8.182-4.5Z" transform="translate(-5.999 -5.999)" fill="#7579ff"/>
      </g>
      <g id="Group_827" data-name="Group 827" transform="translate(21.047 5.545)">
        <g id="Group_825" data-name="Group 825" transform="translate(0.249 0)">
          <circle id="Ellipse_114" data-name="Ellipse 114" cx="3.5" cy="3.5" r="3.5" transform="translate(-0.294 -0.208)" fill="#7579ff"/>
        </g>
        <g id="Group_826" data-name="Group 826" transform="translate(0 9.94)">
          <path id="Path_767" data-name="Path 767" d="M19.518,13A6.348,6.348,0,0,0,15.7,14.09a8.415,8.415,0,0,1,4.364,4.364v.137h5.591V16.817A6.345,6.345,0,0,0,19.518,13Z" transform="translate(-15.7 -12.991)" fill="#7579ff"/>
        </g>
      </g>
      <g id="Group_830" data-name="Group 830" transform="translate(21.047 5.545)">
        <g id="Group_828" data-name="Group 828" transform="translate(0.249 0)">
          <circle id="Ellipse_115" data-name="Ellipse 115" cx="3.5" cy="3.5" r="3.5" transform="translate(-0.294 -0.208)" fill="#7579ff"/>
        </g>
        <g id="Group_829" data-name="Group 829" transform="translate(0 9.94)">
          <path id="Path_768" data-name="Path 768" d="M19.518,13A6.348,6.348,0,0,0,15.7,14.09a8.415,8.415,0,0,1,4.364,4.364v.137h5.591V16.817A6.345,6.345,0,0,0,19.518,13Z" transform="translate(-15.7 -12.991)" fill="#7579ff"/>
        </g>
      </g>
      <g id="Group_833" data-name="Group 833" transform="translate(1 5.545)">
        <g id="Group_831" data-name="Group 831" transform="translate(2.647 0)">
          <circle id="Ellipse_116" data-name="Ellipse 116" cx="3.5" cy="3.5" r="3.5" transform="translate(0.354 -0.208)" fill="#7579ff"/>
        </g>
        <g id="Group_832" data-name="Group 832" transform="translate(0 9.94)">
          <path id="Path_769" data-name="Path 769" d="M7.137,13a6.348,6.348,0,0,1,3.818,1.091,8.415,8.415,0,0,0-4.364,4.364v.137H1V16.817A6.345,6.345,0,0,1,7.137,13Z" transform="translate(-1 -12.991)" fill="#7579ff"/>
        </g>
      </g>
    </g>
  </g>
</svg>
