<?xml version="1.0" encoding="utf-8"?>
<!-- Generator: Adobe Illustrator 16.0.0, SVG Export Plug-In . SVG Version: 6.00 Build 0)  -->
<!DOCTYPE svg PUBLIC "-//W3C//DTD SVG 1.1//EN" "http://www.w3.org/Graphics/SVG/1.1/DTD/svg11.dtd">
<svg version="1.1" id="Layer_1" xmlns="http://www.w3.org/2000/svg" xmlns:xlink="http://www.w3.org/1999/xlink" x="0px" y="0px"
	 width="300px" height="200px" viewBox="0 0 300 200" enable-background="new 0 0 300 200" xml:space="preserve">
<g>
	<g>
		<g>
			<g>
				<polygon fill="#3D465A" points="170.034,149.366 183.229,144.938 179.883,167.736 180.877,187.517 180.916,187.649 
					180.885,187.651 180.887,187.695 178.303,187.866 178.303,187.863 178.207,187.873 172.959,170.125 170.451,151.307 
					170.451,151.307 				"/>
			</g>
			<g>
				<polygon fill="#3D465A" points="178.412,188.771 181.085,188.779 181.702,191.053 181.634,191.07 181.651,191.073 
					177.159,193.563 175.053,193.736 174.855,191.329 175.435,190.931 				"/>
			</g>
		</g>
		<g>
			<g>
				<polygon fill="#3D465A" points="159.77,149.505 162.566,188.784 165.148,188.975 168.35,167.901 173.455,146.968 				"/>
			</g>
			<g>
				<polygon fill="#3D465A" points="162.547,189.693 159.067,191.536 159.342,193.16 165.486,192.414 165.193,190.076 				"/>
			</g>
		</g>
		<g>
			<g>
				<path fill="#D34F4E" d="M186.827,155.954c0.276-6.641-5.654-27.755-5.654-27.755l0.001-0.001
					c-0.627-1.984-1.105-4.002-1.393-6.025c-0.203-1.44-4.52-17.811-4.233-17.831c-2.974,0.217-8.705-0.485-10.907,1.626
					c-0.063,0.06-0.123,0.122-0.181,0.188c-1.717,1.959-2.609,5.923-3.42,8.362c-1.067,3.206-1.886,6.493-2.445,9.824
					c-0.49,2.912-0.779,5.855-0.985,8.8c-0.177,2.532-0.036,5.051-0.122,7.541c-0.095,2.758-0.923,5.747-1.54,8.43
					c-0.621,2.702-1.409,5.371-2.501,7.922c2.952,1.307,6.24,1.66,9.468,1.673c3.228,0.012,6.452-0.299,9.679-0.25
					c2.729,0.042,5.492,0.339,8.166-0.207C182.886,157.813,184.85,156.867,186.827,155.954L186.827,155.954z"/>
			</g>
		</g>
		<g>
			<g>
				<g>
					<path fill="#EAC5B1" d="M192.197,111.827c0.777,0.146,2.801-0.396,3.266-1.11c1.073-1.648-1.473-1.142-2.393-1.164
						c0.106-0.318,0.218-0.624,0.258-0.951c0.037-0.301-2.694,0.479-2.958,0.765c-0.632,0.687-0.344,1.206-0.286,2.074
						C190.789,111.553,191.494,111.695,192.197,111.827z"/>
				</g>
			</g>
			<g>
				<polygon fill="#D34F4E" points="171.756,118.053 182.929,123.187 192.193,111.967 189.461,109.715 183.337,115.885 
					175.951,108.707 168.915,109.011 				"/>
			</g>
		</g>
		<g>
			<polygon fill="#D34F4E" points="164.46,106.155 162.545,107.635 154.091,122.432 159.979,124.696 163.451,111.861 
				164.962,108.541 			"/>
		</g>
		<g>
			<path fill="#4E55A5" d="M168.86,116.403l-4.846-5.712c-0.112-0.133-0.302-0.166-0.453-0.08l0,0l-3.846,2.204
				c-0.215,0.123-0.243,0.423-0.056,0.585l5.909,5.101c0.115,0.101,0.281,0.116,0.414,0.04L168.86,116.403z"/>
		</g>
		<g>
			<polygon fill="#EAC5B1" points="164.331,117.865 165.406,114.391 163.941,113.867 162.679,116.084 162.1,115.514 161.543,118.6 
				162.992,119.35 			"/>
		</g>
		<g>
			<g>
				<path fill="#D34F4E" d="M161.499,117.28c-1.628,1.429-3.279,2.84-4.794,4.391c-0.684,0.699-2.854,0.658-2.453,0.657l3.218,4.412
					c2.509-0.837,4.187-3.629,6.309-7.437C163.02,118.629,162.259,117.955,161.499,117.28z"/>
			</g>
		</g>
		<g>
			<g>
				<path fill="#3D465A" d="M170.722,97.012c-1.514,0.05-3.516,1.039-4.101,2.54c-0.282,0.723-0.14,1.449-0.473,2.21
					c-0.649,1.504,0.903,4.092-1.134,4.901c-1.047,0.417-2.226,0.058-3.293-0.303c-0.129-0.044-0.264-0.092-0.356-0.192
					c-0.153-0.165-0.143-0.43-0.046-0.633c0.098-0.203,0.265-0.362,0.415-0.529c1.576-1.747,1.676-4.574,2.504-6.706
					c0.827-2.129,2.336-4.147,4.652-4.729c0.982,0.866,1.615,1.734,1.698,3.042L170.722,97.012z"/>
			</g>
			<g>
				<path fill="#EAC5B1" d="M167.468,106.222c-1.328-0.815-2.053-2.396-2.138-3.953c-0.084-1.555,0.394-3.091,1.03-4.513
					c2.12-4.731,8.106-2.399,8.926,2.037C176,103.659,171.327,108.595,167.468,106.222z"/>
			</g>
			<g>
				<path fill="#3D465A" d="M174.279,110.007c-0.632-0.535-1.246-1.089-1.53-1.957c-0.457-1.402,0.118-3.389,0.25-4.816
					c0.139-1.504,0.244-3.151-0.618-4.392c-0.563-0.811-1.355-1.128-2.271-1.36c-0.626-0.16-0.706,0.073-1.158-0.391
					c-0.346-0.354-0.511-1.209-0.499-1.683c0.021-0.8,0.519-1.53,1.161-2.004c0.991-0.73,2.016-0.966,3.188-0.716
					c4.118,0.878,6.619,4.034,6.827,8.31c0.101,2.055-0.817,4.099-0.663,6.091c0.095,1.229,0.648,2.165,0.656,3.452
					c0.023,3.34,0.813,7.792-0.092,11.026c-0.033,0.119-0.08,0.251-0.189,0.309c-0.223,0.12-0.452-0.145-0.568-0.368
					c-0.68-1.313-1.36-2.624-2.041-3.937c-0.267-0.515-0.536-1.039-0.651-1.607c-0.286-1.416,0.409-2.997-0.256-4.279
					C175.463,110.983,174.864,110.504,174.279,110.007z"/>
			</g>
		</g>
	</g>
	<g>
		
			<rect x="126.217" y="36.993" transform="matrix(0.7662 0.6427 -0.6427 0.7662 69.8749 -66.7603)" fill="#4E55A5" width="0.913" height="51.287"/>
	</g>
	<g>
		
			<rect x="48.078" y="74.004" transform="matrix(0.9537 0.3008 -0.3008 0.9537 26.0979 -20.5631)" fill="#4E55A5" width="63.482" height="0.914"/>
	</g>
	<g>
		<circle fill="#8EC3CC" cx="49.554" cy="64.952" r="10.875"/>
	</g>
	<g>
		
			<rect x="65.689" y="50.221" transform="matrix(0.3549 0.9349 -0.9349 0.3549 110.9761 -59.4723)" fill="#4E55A5" width="65.786" height="0.913"/>
	</g>
	<g>
		
			<rect x="85.706" y="31.034" transform="matrix(0.923 0.3848 -0.3848 0.923 21.0155 -42.0472)" fill="#4E55A5" width="59.741" height="0.914"/>
	</g>
	<g>
		
			<rect x="169.273" y="-1.668" transform="matrix(0.4423 0.8969 -0.8969 0.4423 120.8962 -135.912)" fill="#4E55A5" width="0.913" height="61.84"/>
	</g>
	<g>
		
			<rect x="138.078" y="60.454" transform="matrix(0.8519 0.5237 -0.5237 0.8519 57.4145 -81.2155)" fill="#4E55A5" width="68.463" height="0.914"/>
	</g>
	<g>
		
			<rect x="227.629" y="23.313" transform="matrix(0.6259 0.7799 -0.7799 0.6259 130.1433 -156.3953)" fill="#4E55A5" width="0.913" height="68.28"/>
	</g>
	<g>
		<circle fill="#EBB043" cx="145.406" cy="40.289" r="19.262"/>
	</g>
	<g>
		<circle fill="#4E55A5" cx="254.694" cy="36.031" r="13.521"/>
	</g>
	<g>
		<circle fill="#4E55A5" cx="88.366" cy="20.265" r="14.577"/>
	</g>
	<g>
		<circle fill="#D34F4E" cx="197.469" cy="15.595" r="10.685"/>
	</g>
	<g>
		<circle fill="#8EC3CC" cx="200.579" cy="72.258" r="28.667"/>
	</g>
	<g>
		<circle fill="#D34F4E" cx="108.521" cy="76.862" r="16.195"/>
	</g>
	<g>
		<g>
			<g>
				<path fill="#B97363" d="M140.663,91.839c0,0,0.694-1.481,0.705-1.505c0.257-0.55-0.525-2.48-0.661-3.104
					c-0.077-0.357-1.669,0.644-1.792,0.876c-0.208,0.395-0.031,1.533-0.067,2.027l-0.82,0.472l0.297,1.178L140.663,91.839z"/>
			</g>
			<g>
				<g>
					<g>
						<g>
							<polygon fill="#4E55A5" points="129.59,149.692 130.249,164.96 128.319,190.919 125.431,191.124 121.923,167.547 
								117.071,147.596 							"/>
						</g>
						<g>
							<polygon fill="#3D465A" points="125.586,193.063 129.92,193.063 130.1,191.631 128.546,190.558 125.424,190.78 							"/>
						</g>
					</g>
					<g>
						<g>
							<polygon fill="#4E55A5" points="109.151,145.152 108.518,156.691 110.397,191.005 113.288,191.15 117.621,168.645 
								121.443,143.965 							"/>
						</g>
						<g>
							<polygon fill="#3D465A" points="113.17,193.174 108.951,193.351 108.521,192.134 110.163,190.649 113.289,190.805 							"/>
						</g>
					</g>
					<g>
						<g>
							<path fill="#7FC5A4" d="M125.961,110.293l-9.022-0.967c0,0-5.019,0.537-8.424,12.456c-1.895,6.631-2.471,17.078-2.61,25.043
								c0.213,1.137,1.45,6.113,6.685,5.27c8.988-1.45,13.772-2.9,17.687-2.175c3.334,0.725,3.052-3.866,2.686-7.37l-1.329-10.839
								L125.961,110.293z"/>
						</g>
					</g>
					<g>
						<g>
							<path fill="#B97363" d="M124.218,99.063c-2.273-0.501-4.614-0.95-6.891-0.5c-0.498,0.099-1.033,0.272-1.304,0.703
								c-0.104,0.167-0.16,0.359-0.211,0.549c-0.574,2.136-1.303,5.3,0.103,7.269c0.268,0.374,0.628,0.672,1.015,0.914
								c0.517,0.323,1.089,0.544,1.682,0.661c-0.122,0.529-0.293,1.05-0.509,1.551c0.52,0.783,2.949,0.877,3.398,0.125
								c0.025-0.651,0.05-1.302,0.075-1.953c0.296-0.119,0.582-0.265,0.849-0.44c1.038-0.684,1.722-1.722,2.119-2.882
								c0.433-1.264,1.041-2.465,1.436-3.753c0.144-0.469,0.257-1.004,0.011-1.428c-0.263-0.452-0.83-0.605-1.339-0.719
								C124.507,99.127,124.363,99.095,124.218,99.063z"/>
						</g>
						<g>
							<path fill="#3D465A" d="M125.215,104.991c1.093-1.121,2.371-2.689,2.47-4.115c0.082-1.178-0.081-2.785-0.741-3.802
								c-0.618-0.952-2.197-1.476-3.137-2.027c-0.885-0.52-1.771-1.04-2.656-1.56c-0.184-0.108-0.374-0.218-0.583-0.255
								c-0.249-0.042-0.502,0.021-0.747,0.084c-2.093,0.541-4.186,1.082-6.278,1.623c-0.402,0.104-0.859,0.255-1.008,0.643
								c-0.09,0.236-0.037,0.5,0.017,0.747c0.237,1.086,0.693,2.197,0.807,3.297c0.173,0.869,0.14,1.646,0.775,2.282
								c0.597,0.599,1.393,0.925,1.871,1.656c0.345,0.528,0.478,1.166,0.748,1.735c1.226,2.585,6.187,1.896,7.904,0.247
								C124.831,105.377,125.02,105.192,125.215,104.991z"/>
						</g>
					</g>
				</g>
				<g>
					<polygon fill="#7FC5A4" points="122.452,111.474 131.025,108.338 138.002,91.511 140.974,91.688 137.747,110.563 
						133.38,114.643 120.885,120.8 					"/>
				</g>
			</g>
		</g>
		<g>
			<g>
				<g>
					<path fill="#B97363" d="M92.864,102.338c-0.418-0.602-0.733-2.514-0.308-3.177c0.98-1.534,1.523,0.807,1.893,1.573
						c0.229-0.211,0.444-0.42,0.704-0.58c0.238-0.146,0.624,2.454,0.482,2.785c-0.338,0.794-0.885,0.75-1.639,1.033
						C93.633,103.42,93.243,102.881,92.864,102.338z"/>
				</g>
			</g>
			<g>
				<polygon fill="#7FC5A4" points="113.19,119.598 99.444,116.919 93.441,103.848 96.026,101.835 102.509,110.95 109.548,110.845 
					116.048,111.306 				"/>
			</g>
		</g>
	</g>
	<g>
		<g>
			<g>
				<path fill="#EAC5B1" d="M79.625,112.048c0,0,0.76-1.448,0.772-1.472c0.282-0.537-0.097-3.45-0.205-4.079
					c-0.061-0.361-2.012,1.517-2.145,1.742c-0.226,0.386-0.1,1.53-0.159,2.022l-0.841,0.435l0.243,1.189L79.625,112.048z"/>
			</g>
			<g>
				<g>
					<polygon fill="#3D465A" points="46.417,189.402 46.188,191.181 49.516,193.418 51.523,191.868 49.974,189.859 46.645,187.624 
											"/>
				</g>
				<g>
					<g>
						<polygon fill="#CDD2D9" points="46.304,188.806 48.871,166.124 45.783,140.731 46.478,135.331 60.271,134.808 60.769,143.599 
							58.453,166.159 49.741,189.965 						"/>
					</g>
				</g>
				<g>
					<polygon fill="#EBB043" points="61.566,109.711 66.487,110.716 72.825,117.355 77.049,111.48 80.252,111.692 73.577,125.09 
						65.188,120.8 					"/>
				</g>
				<g>
					<g>
						<polygon fill="#CDD2D9" points="70.393,137.348 70.429,160.237 65.822,189.702 62.505,189.67 60.683,162.421 56.417,135.148 
													"/>
					</g>
					<g>
						<polygon fill="#3D465A" points="62.51,191.067 66.079,192.896 67.89,191.122 66.114,189.311 62.528,189.274 						"/>
					</g>
				</g>
				<g>
					<g>
						<path fill="#EBB043" d="M44.355,145.134c0.032-0.992,0.087-1.82,0.095-2.116c0.071-2.661,0.308-5.314,0.641-7.957
							c0.298-2.367,0.675-8.245,1.081-10.597c0.334-1.944,1.5-6.793,2.342-8.595c2.094-4.48,1.447-4.895,10.648-6.226
							c4.032-0.583,4.985,1.931,8.282,4.82c0.325,0.284,0.307,1.982,0.383,2.431c0.132,0.792,0.275,1.582,0.438,2.368
							c0.129,0.618,0.27,1.234,0.429,1.847v-0.001c0,0,2.767,12.595,4.597,15.27c1.83,2.674,5.611,6.415-0.713,8.697
							c-1.121,0.362-2.249,0.707-3.415,0.892c0,0-5.173-0.575-7.833-0.555c-2.45,0.019-4.91,0.266-7.318,0.681
							c-1.611,0.27-3.254,0.66-4.695,1.413c-1.375,0.718-2.367,1.774-3.761,2.518c-0.132,0.071-0.277,0.143-0.428,0.123
							C44.327,150.035,44.289,147.221,44.355,145.134z"/>
					</g>
				</g>
				<g>
					<g>
						<path fill="#EAC5B1" d="M58.336,110.805c-0.376,0.354-1.4,0.756-2.624,0.663c-0.247-0.019-0.46-0.186-0.53-0.423
							c-0.195-0.667-0.346-1.346-0.449-2.032c-0.908-0.036-1.988-0.177-2.394-0.991c-0.128-0.255-0.166-0.546-0.202-0.829
							c-0.15-1.173-0.3-2.347-0.45-3.521c-0.052-0.406-0.103-0.825,0.005-1.22c0.19-0.692,0.825-1.166,1.466-1.491
							c1.634-0.83,3.629-1.034,5.315-0.315c0.448,0.192,0.882,0.455,1.174,0.845c0.45,0.603,0.499,1.405,0.529,2.156
							c0.029,0.693,0.058,1.387,0.086,2.08c0.033,0.798,0.011,1.724-0.615,2.219c-0.333,0.263-0.792,0.356-1.067,0.68
							C58.096,109.194,58.453,110.065,58.336,110.805z"/>
					</g>
					<g>
						<path fill="#3D465A" d="M64.882,96.628c0.083-0.331,0.184-0.656,0.311-0.97c0.275-0.682,0.677-1.317,0.847-2.032
							c0.17-0.715,0.043-1.575-0.555-2.001c-0.387-0.275-0.89-0.317-1.364-0.312c-1.563,0.019-3.118,0.465-4.453,1.279
							c-1.271,0.775-2.327,1.735-3.875,1.644c-1.454-0.086-2.335,0.401-3.548,1.307c-1.314,0.979-3.256,1.712-4.363,2.866
							c-0.462,0.481-0.758,1.104-0.94,1.745c-0.631,2.225,0.148,4.786,1.913,6.281c0.396,0.336,0.833,0.62,1.281,0.881
							c0.928,0.541,2.046,1.218,3.09,1.203c-0.24-0.864-1.851-3.323-1.408-4.229c0.701-1.435,3.181-1.771,4.56-1.895
							c1.504-0.135,3.07,0.479,4.537,0.262c1.055-0.155,2.189-1.045,2.886-1.829C64.659,99.86,64.575,97.834,64.882,96.628z"/>
					</g>
				</g>
				<g>
					<polygon fill="#EBB043" points="51.115,111.615 43.876,113.475 35.16,99.925 31.481,100.918 37.613,120.423 51.725,122.121 
											"/>
				</g>
			</g>
		</g>
	</g>
	<g>
		<path fill="#D34F4E" d="M75.71,109.86l3.337,0.729c0.327,0.072,0.657-0.109,0.77-0.425l2.929-8.141
			c0.136-0.378-0.091-0.79-0.483-0.877l-4.035-0.894c-0.349-0.078-0.696,0.133-0.788,0.478l-2.231,8.304
			C75.109,109.403,75.338,109.779,75.71,109.86z"/>
	</g>
	<g>
		<path fill="#EAC5B1" d="M32.358,100.809c0,0-1.238-1.457-1.258-1.48c-0.459-0.54-0.411-2.753-0.511-3.449
			c-0.057-0.396,1.886,0.378,2.093,0.603c0.353,0.384,0.604,1.636,0.826,2.159l0.985,0.351l0.148,1.316L32.358,100.809z"/>
	</g>
	<g>
		<path fill="#FFFFFF" d="M48.991,74.561c2.661,0.171,5.14-0.752,6.998-2.382c-0.244-0.921-0.539-1.821-0.883-2.668
			c-0.579-1.428-1.658-2.565-2.974-3.222c0.01-0.016,0.023-0.031,0.034-0.047c0.57-0.917,0.744-1.984,0.736-3.024
			c-0.008-0.989-0.187-2.008-0.79-2.842c-0.604-0.834-1.703-1.446-2.835-1.344c-1.216,0.109-2.194,1.009-2.61,2.011
			s-0.374,2.096-0.292,3.155c0.06,0.76,0.268,1.531,0.63,2.176c-0.8,0.482-1.508,1.19-2.184,2.063
			c-0.692,0.893-0.664,0.935-1.099,1.987c-0.214,0.518-0.427,1.053-0.611,1.642C44.674,73.49,46.714,74.415,48.991,74.561z"/>
	</g>
	<g>
		<path fill="#FFFFFF" d="M87.812,32.805c3.517,0.226,6.793-0.994,9.249-3.148c-0.322-1.217-0.713-2.407-1.167-3.526
			c-0.766-1.887-2.192-3.391-3.931-4.259c0.014-0.021,0.031-0.041,0.044-0.063c0.754-1.213,0.984-2.623,0.972-3.997
			c-0.011-1.308-0.246-2.655-1.043-3.757c-0.798-1.103-2.25-1.911-3.747-1.776c-1.607,0.146-2.9,1.334-3.451,2.658
			c-0.55,1.325-0.494,2.77-0.386,4.171c0.078,1.004,0.353,2.023,0.832,2.875c-1.057,0.638-1.992,1.574-2.887,2.728
			c-0.915,1.18-0.876,1.235-1.453,2.627c-0.283,0.684-0.564,1.392-0.807,2.17C82.106,31.39,84.803,32.611,87.812,32.805z"/>
	</g>
	<g>
		<path fill="#FFFFFF" d="M107.699,91.268c3.783,0.243,7.307-1.069,9.947-3.387c-0.347-1.308-0.766-2.588-1.255-3.792
			c-0.824-2.029-2.357-3.647-4.227-4.581c0.015-0.023,0.033-0.044,0.047-0.067c0.811-1.305,1.058-2.821,1.046-4.299
			c-0.012-1.406-0.265-2.854-1.123-4.041c-0.857-1.186-2.419-2.056-4.029-1.91c-1.729,0.156-3.12,1.434-3.712,2.859
			c-0.591,1.424-0.531,2.979-0.414,4.485c0.084,1.081,0.38,2.176,0.894,3.092c-1.137,0.686-2.143,1.692-3.104,2.934
			c-0.984,1.27-0.943,1.329-1.563,2.825c-0.304,0.736-0.606,1.498-0.868,2.334C101.563,89.746,104.463,91.06,107.699,91.268z"/>
	</g>
	<g>
		<path fill="#FFFFFF" d="M254.014,47.104c3.266,0.21,6.307-0.922,8.586-2.922c-0.3-1.129-0.662-2.234-1.084-3.273
			c-0.711-1.751-2.035-3.148-3.648-3.954c0.013-0.02,0.029-0.039,0.042-0.058c0.699-1.126,0.912-2.435,0.902-3.71
			c-0.01-1.213-0.229-2.464-0.969-3.487s-2.089-1.774-3.478-1.648c-1.493,0.135-2.693,1.238-3.204,2.467
			c-0.51,1.229-0.458,2.571-0.357,3.871c0.072,0.933,0.328,1.878,0.772,2.668c-0.982,0.592-1.851,1.461-2.68,2.532
			c-0.85,1.096-0.815,1.146-1.35,2.438c-0.263,0.635-0.522,1.292-0.749,2.014C248.719,45.791,251.222,46.925,254.014,47.104z"/>
	</g>
	<g>
		<path fill="#FFFFFF" d="M144.452,56.906c4.566,0.293,8.819-1.29,12.006-4.087c-0.418-1.579-0.926-3.124-1.516-4.577
			c-0.994-2.449-2.845-4.402-5.102-5.529c0.018-0.027,0.04-0.053,0.057-0.081c0.979-1.575,1.277-3.405,1.261-5.188
			c-0.014-1.697-0.318-3.446-1.354-4.877c-1.035-1.431-2.92-2.48-4.864-2.305c-2.086,0.188-3.766,1.731-4.479,3.45
			c-0.714,1.719-0.642,3.596-0.501,5.414c0.101,1.304,0.459,2.626,1.08,3.732c-1.373,0.828-2.587,2.043-3.748,3.542
			c-1.188,1.532-1.139,1.604-1.886,3.41c-0.368,0.888-0.732,1.807-1.048,2.817C137.045,55.069,140.546,56.655,144.452,56.906z"/>
	</g>
	<g>
		<path fill="#FFFFFF" d="M196.922,24.483c2.612,0.167,5.046-0.739,6.869-2.339c-0.239-0.903-0.529-1.788-0.867-2.619
			c-0.568-1.402-1.628-2.52-2.919-3.164c0.01-0.017,0.022-0.031,0.033-0.047c0.56-0.901,0.729-1.948,0.722-2.969
			c-0.009-0.971-0.183-1.971-0.774-2.791c-0.593-0.818-1.672-1.419-2.783-1.319c-1.194,0.108-2.156,0.991-2.563,1.974
			c-0.408,0.984-0.367,2.058-0.287,3.098c0.059,0.746,0.263,1.503,0.618,2.136c-0.785,0.474-1.479,1.169-2.145,2.026
			c-0.679,0.877-0.651,0.918-1.079,1.951c-0.21,0.508-0.418,1.034-0.599,1.612C192.684,23.431,194.687,24.339,196.922,24.483z"/>
	</g>
	<g>
		<path fill="#FFFFFF" d="M199.031,98.099c7.382,0.474,14.257-2.085,19.41-6.608c-0.677-2.552-1.496-5.05-2.449-7.4
			c-1.608-3.959-4.602-7.116-8.249-8.938c0.029-0.044,0.065-0.085,0.093-0.131c1.583-2.546,2.064-5.505,2.04-8.388
			c-0.022-2.744-0.516-5.57-2.19-7.884c-1.673-2.314-4.722-4.011-7.862-3.727c-3.374,0.305-6.088,2.799-7.241,5.578
			c-1.154,2.78-1.038,5.813-0.81,8.751c0.163,2.108,0.741,4.246,1.745,6.033c-2.219,1.339-4.183,3.303-6.059,5.726
			c-1.92,2.477-1.84,2.592-3.049,5.512c-0.594,1.436-1.184,2.921-1.693,4.553C187.058,95.128,192.717,97.693,199.031,98.099z"/>
	</g>
	<g>
		<g id="XMLID_856_">
			<g id="XMLID_858_">
				<g id="XMLID_872_">
					<g id="XMLID_874_">
						<g>
							<path fill="#3D465A" d="M240.438,187.823c0.318-0.35,0.689-0.541,1.109-0.476c0.401,0.063,0.765,0.337,0.931,0.702
								c0.113,0.249,0.138,0.525,0.159,0.799c0.116,1.406,0.105,4.743-1.767,5.224c-0.787,0.202-1.438-0.356-1.648-1.063
								C238.905,191.943,239.373,188.994,240.438,187.823z"/>
						</g>
					</g>
					<g id="XMLID_873_">
						<g>
							<path fill="#EAC5B1" d="M239.771,166.614l0.098,8.575c-0.114,3.809,0.48,7.64,0.367,11.449
								c-0.026,0.875-0.255,1.8-0.034,2.667c0.216,0.85,0.906,0.999,1.614,0.569c0.949-0.576,0.796-1.921,0.954-2.903
								c0.435-2.697,0.943-5.382,1.397-8.076c0.222-1.32-0.236-3.172-0.137-4.509c0-0.001,1.386-7.187,1.386-7.187L239.771,166.614z
								"/>
						</g>
					</g>
				</g>
				<g id="XMLID_871_">
					<g>
						<polygon fill="#7FC5A4" points="249.569,152.758 245.837,169.337 245.045,184.993 239.126,184.86 237.518,141.066 
							248.989,141.275 						"/>
					</g>
				</g>
				<g id="XMLID_866_">
					<g id="XMLID_868_">
						<g id="XMLID_870_">
							<g>
								<path fill="#3D465A" d="M231.973,187.512c0.332-0.331,0.71-0.501,1.126-0.41c0.397,0.087,0.747,0.382,0.897,0.757
									c0.103,0.256,0.114,0.535,0.125,0.809c0.056,1.414-0.097,4.754-1.984,5.124c-0.793,0.156-1.418-0.441-1.598-1.161
									C230.27,191.545,230.862,188.621,231.973,187.512z"/>
							</g>
						</g>
						<g id="XMLID_869_">
							<g>
								<path fill="#EAC5B1" d="M235.092,167.818l-0.502,8.561c-0.04,2.379-0.357,4.74-0.604,7.104
									c-0.229,2.195,0.127,4.481-1.02,6.478c-0.36,0.627-1.087,1.043-1.596,0.282c-0.392-0.586-0.158-1.563-0.233-2.229
									c-0.307-2.714-0.689-5.42-1.015-8.133c-0.16-1.329,0.385-3.156,0.348-4.496c0-0.001-1.044-7.244-1.044-7.244
									L235.092,167.818z"/>
							</g>
						</g>
					</g>
					<g id="XMLID_867_">
						<g>
							<polygon fill="#7FC5A4" points="227.603,151.745 227.121,167.837 229.646,184.113 235.667,184.293 235.401,166.68 
								238.587,152.073 239.656,142.512 230.104,141.386 							"/>
						</g>
					</g>
				</g>
				<g id="XMLID_865_">
					<g>
						<polygon fill="#4E55A5" points="235.16,108.449 245.45,108.203 251.416,119.301 249.296,129.693 248.919,142.133 
							234.239,142.332 229.408,141.548 230.691,128.258 229.956,110.506 						"/>
					</g>
				</g>
				<g id="XMLID_864_">
					<g>
						<polygon fill="#4E55A5" points="245.791,108.969 254.145,121.692 252.89,128.78 239.951,137.743 237.518,135.615 
							246.166,124.68 245.831,117.771 						"/>
					</g>
				</g>
				<g id="XMLID_859_">
					<g id="XMLID_863_">
						<g>
							<path fill="#EAC5B1" d="M236.508,98.847c2.026-4.319,7.765-2,8.555,2.125c0.516,2.69-1.86,5.854-4.64,6.311
								c-0.022,0.102-0.32,0.978-0.328,1.059c-0.049,0.418-0.145,0.824-0.251,1.235c-0.04,0.153-2.354-0.556-2.61-0.636
								c-0.091-0.028-0.19-0.064-0.231-0.147c-0.079-0.157,0.4-1.359,0.436-1.521c0.041-0.192,0.082-0.385,0.124-0.577
								c-1.261-0.793-1.953-2.269-2.035-3.702C235.443,101.551,235.899,100.144,236.508,98.847z"/>
						</g>
					</g>
					<g id="XMLID_860_">
						<g id="XMLID_862_">
							<g>
								<path fill="#3D465A" d="M240.807,95.21c0.283,0.356,0.36,0.819,0.404,1.261c0.026,0.264,0.045,0.535-0.038,0.784
									c-0.329,0.995-1.333,0.833-2.149,1.076c-1.007,0.301-1.917,0.957-2.549,1.756c-0.989,1.252-0.795,3.022-0.612,4.542
									c0.063,0.534,0.224,1.338-0.232,1.759c-0.463,0.43-1.406,0.255-1.872-0.042c-0.427-0.271-0.752-0.723-1.237-0.858
									c-0.515-0.145-1.247,0.009-1.438-0.498c-0.054-0.141-0.043-0.305-0.114-0.437c-0.244-0.445-1.017-0.037-1.393-0.373
									c-0.231-0.206-0.188-0.588-0.071-0.882c0.117-0.293,0.294-0.584,0.268-0.897c-0.021-0.271-0.19-0.5-0.283-0.753
									c-0.182-0.501-0.033-1.11,0.356-1.474c0.725-0.676,1.957-0.4,2.724-1.028c0.398-0.327,0.596-0.839,0.783-1.323
									c0.188-0.485,0.405-0.993,0.826-1.29c0.521-0.367,1.199-0.222,1.721-0.667c0.307-0.261,0.531-0.621,0.867-0.84
									c0.443-0.29,1.268-0.461,1.794-0.576C239.392,94.267,240.272,94.536,240.807,95.21z"/>
							</g>
						</g>
						<g id="XMLID_861_">
							<g>
								<path fill="#3D465A" d="M243.78,102.771c-0.132,1.479-1.036,2.995-0.497,4.368c0.545,1.385,2.229,1.806,3.681,2.031
									c0.239,0.036,3.286,0.634,3.307,0.578c0.341-1.004,0.691-2.027,1.326-2.871c0.635-0.845,1.614-1.496,2.649-1.45
									c-0.292-0.083-0.401-0.463-0.334-0.766c0.066-0.303,0.256-0.562,0.379-0.847c0.304-0.698,0.175-1.566-0.316-2.133
									c-0.979-1.132-2.997-0.924-3.804-2.189c-0.501-0.785-0.319-1.825-0.527-2.74c-0.402-1.769-2.231-2.327-3.543-3.248
									c-1.386-0.972-2.726-1.567-4.456-1.467c-2.146,0.124-3.943,2.101-3.348,4.208c0.762,2.703,4.954,2.929,5.452,5.643
									C243.802,102.18,243.808,102.474,243.78,102.771z"/>
							</g>
						</g>
					</g>
				</g>
			</g>
			<g id="XMLID_857_">
				<g>
					<polygon fill="#FFFFFF" points="242.405,108.391 239.793,130.674 237.445,130.674 235.212,108.203 					"/>
				</g>
			</g>
		</g>
		<g id="XMLID_855_">
			<g>
				<polygon fill="#EAC5B1" points="237.452,137.02 237.507,138.756 234.443,139.872 232.678,138.533 232.677,136.513 
					234.382,136.418 234.435,135.974 234.993,135.615 				"/>
			</g>
		</g>
		<g>
			<path fill="#4E55A5" d="M235.212,108.203l-5.804,0.316c0,0-6.513,3.202-6.943,2.961c-0.432-0.24-7.469-14.33-7.469-14.33
				l-3.446,1.119l4.309,16.118l4.164,4.307l11.778-1.96L235.212,108.203z"/>
		</g>
		<g>
			<path fill="#EAC5B1" d="M214.716,97.269c0,0,0-1.636,0-1.662c0-0.606-1.527-2.023-1.915-2.531
				c-0.223-0.291-1.238,1.292-1.251,1.553c-0.021,0.447,0.622,1.402,0.799,1.865l-0.543,0.775l0.769,0.941L214.716,97.269z"/>
		</g>
	</g>
</g>
</svg>
