<?xml version="1.0" encoding="utf-8"?>
<!-- Generator: Adobe Illustrator 16.0.0, SVG Export Plug-In . SVG Version: 6.00 Build 0)  -->
<!DOCTYPE svg PUBLIC "-//W3C//DTD SVG 1.1//EN" "http://www.w3.org/Graphics/SVG/1.1/DTD/svg11.dtd">
<svg version="1.1" id="Layer_1" xmlns="http://www.w3.org/2000/svg" xmlns:xlink="http://www.w3.org/1999/xlink" x="0px" y="0px"
	 width="98px" height="150px" viewBox="0 0 98 150" enable-background="new 0 0 98 150" xml:space="preserve">
<g>
	
		<radialGradient id="SVGID_1_" cx="1857.7197" cy="-13560.5313" r="80.4268" gradientTransform="matrix(0.4903 0 0 0.0706 -861.9636 1097.6965)" gradientUnits="userSpaceOnUse">
		<stop  offset="0" style="stop-color:#CBDAE3"/>
		<stop  offset="1" style="stop-color:#FFFFFF"/>
	</radialGradient>
	<ellipse fill="url(#SVGID_1_)" cx="48.876" cy="140.323" rx="39.444" ry="5.677"/>
	<g>
		<g>
			<g>
				<linearGradient id="SVGID_2_" gradientUnits="userSpaceOnUse" x1="3.4146" y1="69.7305" x2="94.5078" y2="69.7305">
					<stop  offset="0" style="stop-color:#9DC86D"/>
					<stop  offset="1" style="stop-color:#448149"/>
				</linearGradient>
				<path fill="url(#SVGID_2_)" d="M81.169,18.17C70.101,7.102,53.734,2.442,38.496,6.019C26.878,8.745,16.623,16.131,10.295,26.241
					c-3.211,5.13-5.378,10.894-6.337,16.869c-1.047,6.521-0.495,13.137,0.904,19.564c2.633,12.092,8.158,23.477,14.455,34.054
					c5.488,9.222,11.742,17.989,18.478,26.337c2.045,2.533,4.136,5.031,6.289,7.473c1.125,1.275,2.545,3.239,4.154,3.796
					c0.265,0.092,0.66,0.278,0.944,0.292c0.374,0.017,0.854-0.189,1.212-0.323c0.849-0.313,1.575-0.997,2.188-1.654
					c0.309-0.332,0.607-0.674,0.908-1.014c1.806-2.04,3.558-4.126,5.279-6.238c6.474-7.946,12.495-16.285,17.873-25.015
					c6.509-10.562,12.269-21.854,15.502-33.882c1.76-6.539,2.79-13.419,2.19-20.19c-0.631-7.128-2.964-14.068-6.772-20.126
					C85.74,23.283,83.592,20.59,81.169,18.17 M76.453,60.454c-4.811,13.104-18.66,21.205-32.438,18.853
					c-10.462-1.786-19.342-9.401-22.781-19.43c-3.518-10.256-0.939-21.891,6.543-29.724c8.005-8.38,20.539-11.296,31.414-7.218
					c13.033,4.888,21,18.746,18.614,32.479C77.508,57.13,77.054,58.819,76.453,60.454C76.206,61.125,77.608,57.311,76.453,60.454z"
					/>
				<linearGradient id="SVGID_3_" gradientUnits="userSpaceOnUse" x1="71.6953" y1="134.6475" x2="71.6953" y2="4.8149">
					<stop  offset="0" style="stop-color:#9DC86D"/>
					<stop  offset="1" style="stop-color:#448149"/>
				</linearGradient>
				<path fill="url(#SVGID_3_)" d="M94.516,50.378c0,11.619-4.006,23.129-8.887,33.525c-4.652,9.907-10.431,19.272-16.75,28.195
					c-4.333,6.118-8.937,12.056-13.824,17.741c-0.813,0.948-1.627,1.903-2.48,2.816c-0.6,0.642-1.308,1.301-2.128,1.631
					c-0.262,0.104-1.267,0.568-1.502,0.251c-0.123-0.165,0-0.899,0-1.092c0-5.607,0-11.213,0-16.82c0-7.894,0-15.787,0-23.682
					c0-2.984,0-5.969,0-8.954c0-0.94,0-1.882,0-2.822c0-0.264-0.153-1.136,0-1.362c0.196-0.289,1.875-0.138,2.314-0.172
					c1.788-0.14,3.567-0.452,5.298-0.92c3.437-0.929,6.706-2.496,9.579-4.596c5.861-4.285,10.023-10.673,11.497-17.79
					c1.517-7.326,0.132-15.082-3.826-21.425c-3.426-5.491-8.672-9.771-14.742-12.015c-1.663-0.615-3.38-1.07-5.127-1.374
					c-0.805-0.141-1.617-0.251-2.434-0.32c-0.45-0.038-0.901-0.063-1.354-0.083c-0.123-0.005-1.115,0.076-1.206-0.028
					c-0.086-0.098,0-0.648,0-0.772c0-0.632,0-1.264,0-1.896c0-3.728,0-7.456,0-11.183c0-0.805,0-1.61,0-2.417
					c10.156,0,20.154,3.445,28.137,9.727c6.856,5.395,12.11,12.728,14.957,20.979C93.683,40.292,94.516,45.332,94.516,50.378z"/>
			</g>
			<g>
				<linearGradient id="SVGID_4_" gradientUnits="userSpaceOnUse" x1="18.1523" y1="50.3701" x2="79.7637" y2="50.3701">
					<stop  offset="0" style="stop-color:#448149"/>
					<stop  offset="1" style="stop-color:#9DC86D"/>
				</linearGradient>
				<path fill="url(#SVGID_4_)" d="M18.152,50.384c0,12.821,8.273,24.593,20.322,28.967c12.138,4.406,26.067,0.547,34.286-9.384
					c8.236-9.952,9.33-24.405,2.636-35.465c-6.696-11.062-19.953-16.904-32.633-14.304c-12.421,2.547-22.277,12.87-24.239,25.397
					C18.275,47.178,18.152,48.78,18.152,50.384z M58.858,28.475c10.296,4.644,16.104,16.237,13.583,27.254
					c-1.939,8.479-8.568,15.415-16.934,17.78c-8.552,2.418-17.947-0.204-24.036-6.667c-6.587-6.994-8.386-17.533-4.426-26.309
					c4.729-10.477,16.619-16.274,27.79-13.46C56.215,27.42,57.561,27.895,58.858,28.475C59.568,28.796,58.329,28.238,58.858,28.475z
					"/>
			</g>
		</g>
	</g>
	<linearGradient id="SVGID_5_" gradientUnits="userSpaceOnUse" x1="37.6221" y1="50.3882" x2="60.2803" y2="50.3882">
		<stop  offset="0" style="stop-color:#9DC86D"/>
		<stop  offset="1" style="stop-color:#448149"/>
	</linearGradient>
	<path fill="url(#SVGID_5_)" d="M48.944,39.053c-4.727,0-9.063,3.062-10.666,7.507c-1.61,4.468-0.181,9.579,3.473,12.597
		c3.661,3.023,8.976,3.418,13.039,0.96c4.046-2.447,6.197-7.277,5.281-11.92C59.037,42.953,54.286,39.053,48.944,39.053z"/>
</g>
</svg>
