<svg xmlns="http://www.w3.org/2000/svg" xmlns:xlink="http://www.w3.org/1999/xlink" width="42" height="42" viewBox="0 0 42 42">
  <defs>
    <linearGradient id="linear-gradient" x1="0.762" y1="0.786" x2="0.167" y2="0.19" gradientUnits="objectBoundingBox">
      <stop offset="0" stop-color="#7579ff"/>
      <stop offset="1" stop-color="#b224ef"/>
    </linearGradient>
  </defs>
  <g id="Group_330" data-name="Group 330" transform="translate(-21 -751)">
    <g id="Group_8" data-name="Group 8" transform="translate(24 -8)">
      <circle id="Ellipse_15" data-name="Ellipse 15" cx="21" cy="21" r="21" transform="translate(-3 759)" fill="url(#linear-gradient)"/>
    </g>
    <g id="binoculars" transform="translate(27 682.62)">
      <g id="Group_10" data-name="Group 10" transform="translate(0 79.005)">
        <g id="Group_9" data-name="Group 9">
          <path id="Path_10" data-name="Path 10" d="M29.3,89.9c-.205-.416-4.6-7.654-4.708-7.835a4.461,4.461,0,0,0-4.456-2.076v0a2.056,2.056,0,0,0-3.807,1.077v3.592H13.673V81.061a2.056,2.056,0,0,0-3.807-1.076,4.461,4.461,0,0,0-4.456,2.076c-.011.018-.046.074-.872,1.459a.5.5,0,1,0,.862.514c.68-1.14.846-1.416.865-1.447a3.458,3.458,0,0,1,6.4,1.811h0v4.948a6.831,6.831,0,0,0-8.927-2.532l.744-1.248a.5.5,0,0,0-.862-.514C2.556,86.842.877,89.527.665,89.97a6.836,6.836,0,1,0,13.007,2.94V91.576h2.655V92.91A6.836,6.836,0,1,0,29.3,89.9Zm-16.63-8.313a4.485,4.485,0,0,0-1.752-1.306,1.051,1.051,0,0,1,1.752.784v.522ZM6.836,98.742a5.832,5.832,0,1,1,5.832-5.832A5.839,5.839,0,0,1,6.836,98.742Zm6.836-10.1V85.658h2.655v2.987Zm2.655,1.928H13.673v-.924h2.655Zm1-9.511a1.052,1.052,0,0,1,1.752-.785,4.485,4.485,0,0,0-1.752,1.307Zm0,3.339h0a3.458,3.458,0,0,1,6.4-1.811c.06.1,1.315,2.2,2.522,4.228a6.831,6.831,0,0,0-8.927,2.532V84.4Zm5.832,14.343A5.832,5.832,0,1,1,29,92.91,5.839,5.839,0,0,1,23.164,98.742Z" transform="translate(0 -79.005)" fill="#fff"/>
        </g>
      </g>
      <g id="Group_12" data-name="Group 12" transform="translate(18.487 88.234)">
        <g id="Group_11" data-name="Group 11">
          <path id="Path_11" data-name="Path 11" d="M324.6,239.606a.5.5,0,1,0-.945.34,3.677,3.677,0,1,1-.768-1.259.5.5,0,1,0,.735-.684,4.662,4.662,0,1,0,.978,1.6Z" transform="translate(-315.518 -236.512)" fill="#fff" stroke="#fff" stroke-width="3"/>
        </g>
      </g>
      <g id="Group_14" data-name="Group 14" transform="translate(2.16 88.234)">
        <g id="Group_13" data-name="Group 13" transform="translate(0 0)">
          <path id="Path_12" data-name="Path 12" d="M41.542,236.514a4.676,4.676,0,1,0,4.676,4.676A4.681,4.681,0,0,0,41.542,236.514Zm0,8.348a3.672,3.672,0,1,1,3.672-3.672A3.676,3.676,0,0,1,41.542,244.862Z" transform="translate(-36.866 -236.514)" fill="#fff" stroke="#fff" stroke-width="3"/>
        </g>
      </g>
    </g>
  </g>
</svg>
