<svg xmlns="http://www.w3.org/2000/svg" xmlns:xlink="http://www.w3.org/1999/xlink" width="97.666" height="97.666" viewBox="0 0 97.666 97.666">
  <defs>
    <clipPath id="clip-path">
      <path id="Path_360" data-name="Path 360" d="M98.48,50.679A48.333,48.333,0,1,1,50.147,2.346,48.333,48.333,0,0,1,98.48,50.679Z" fill="#65b031"/>
    </clipPath>
  </defs>
  <g id="boy" transform="translate(-1.314 -1.846)">
    <path id="Path_339" data-name="Path 339" d="M98.48,50.679A48.333,48.333,0,1,1,50.147,2.346,48.333,48.333,0,0,1,98.48,50.679Z" fill="#272765" stroke="#000" stroke-width="1"/>
    <g id="Group_97" data-name="Group 97" clip-path="url(#clip-path)">
      <g id="Group_96" data-name="Group 96">
        <path id="Path_340" data-name="Path 340" d="M62.4,97.557l-28.236-.335L35.9,78.408l.12-1.295.228-2.476,23.1.272,1.5.019.438,6.4Z" fill="#f8ae77"/>
        <g id="Group_92" data-name="Group 92">
          <path id="Path_341" data-name="Path 341" d="M47.8,91.14l-6.693,15.026L21.884,93.132l5.664-4.609Z" fill="#ebebeb"/>
          <path id="Path_342" data-name="Path 342" d="M41.267,106.723l-20-13.564,6.174-5.026,20.909,2.7ZM22.5,93.1l18.45,12.51,6.31-14.166-19.6-2.533Z" fill="#0e1137"/>
        </g>
        <g id="Group_93" data-name="Group 93">
          <path id="Path_343" data-name="Path 343" d="M43.793,90.621l4.283,16.446L73.671,93.579l-4.822-6.764Z" fill="#ebebeb"/>
          <path id="Path_344" data-name="Path 344" d="M47.835,107.613l-4.5-17.3,25.689-3.9,5.2,7.295ZM44.256,90.927l4.062,15.593,24.8-13.072-4.442-6.231Z" fill="#0e1137"/>
        </g>
        <path id="Path_345" data-name="Path 345" d="M61.289,81.334a10.72,10.72,0,0,1-6.826,5.217c-6.919,1.521-14.547-4.51-18.563-8.143l.12-1.295c.373.109.8.216,1.278.319a39.653,39.653,0,0,0,12.885.441A22.92,22.92,0,0,0,59.35,74.91l1.5.019Z" fill="#e7a071"/>
        <path id="Path_346" data-name="Path 346" d="M68.44,51.33c-.769,15.5-9.714,27.683-21.1,27.118S27.362,64.86,28.132,49.361s10.618-27.607,22-27.041S69.21,35.831,68.44,51.33Z" fill="#f8ae77"/>
        <path id="Path_347" data-name="Path 347" d="M48.69,82.993c-10.99.207-20.121-12.3-20.41-27.917-.025-1.5.037-2.978.152-4.428.6,15.214,9.619,27.273,20.408,27.074,9.909-.184,17.923-10.643,19.193-24.154.021.258.026.516.028.772C68.35,69.956,59.681,82.784,48.69,82.993Z" fill="#141414"/>
        <path id="Path_348" data-name="Path 348" d="M41.408,13.358s-1.6,11.387,1.025,13.4,6.26-.564,8.9-.681,7.912.114,11.155,3.771S67.669,43.2,67.669,43.2l.4,3.216s2.068.815,2.67-2.083S72.323,29.1,72.854,27.947a3.467,3.467,0,0,0-.641-3.9c-1.176-1.526-2.63-3.849-1.988-4.681S73.417,16.5,71.5,14.2,59.248,9.261,57.065,10.81,48.5,4.511,41.408,13.358Z" fill="#141414"/>
        <path id="Path_349" data-name="Path 349" d="M39.308,13.964s-10.385-.2-11.774,8.775c0,0-1.5,1.866-4.4,4.81s-.683,8.835-.43,12.185,1.3,6.231,1.1,7.2,1.43,3.083,3.216,2.551A4.085,4.085,0,0,0,29.434,47s1.791-12.681,3.958-14.69a25.592,25.592,0,0,1,7.6-4.51,4.2,4.2,0,0,0,2.628-2.635c.029-.225-.706-12.829-.706-12.829Z" fill="#141414"/>
        <path id="Path_350" data-name="Path 350" d="M32.072,52.24c1.035,3.083.109,6.175-2.069,6.908s-4.783-1.174-5.819-4.257-.11-6.176,2.068-6.908S31.035,49.158,32.072,52.24Z" fill="#f8ae77"/>
        <path id="Path_351" data-name="Path 351" d="M72.34,53.411c-.782,3.155-3.225,5.267-5.456,4.714s-3.4-3.56-2.62-6.717,3.223-5.267,5.455-4.714S73.122,50.254,72.34,53.411Z" fill="#f8ae77"/>
        <path id="Path_352" data-name="Path 352" d="M42.2,43.617a31.061,31.061,0,0,0-4.346.013,12.391,12.391,0,0,0-4,.858l-.055.026a1.18,1.18,0,0,1-1-2.136,14.438,14.438,0,0,1,4.821-1.235,33.258,33.258,0,0,1,4.75-.155,1.317,1.317,0,1,1-.092,2.633h-.034Z" fill="#141414"/>
        <path id="Path_353" data-name="Path 353" d="M40.286,49.035A1.765,1.765,0,1,1,38.508,47,1.92,1.92,0,0,1,40.286,49.035Z" fill="#141414"/>
        <path id="Path_354" data-name="Path 354" d="M54.276,43.732a30.962,30.962,0,0,1,4.344.137,12.34,12.34,0,0,1,3.969.97l.055.027a1.18,1.18,0,1,0,1.064-2.106,14.407,14.407,0,0,0-4.783-1.371,33.3,33.3,0,0,0-4.744-.289,1.318,1.318,0,1,0,.017,2.635h.033Z" fill="#141414"/>
        <path id="Path_355" data-name="Path 355" d="M56.033,49.2a1.766,1.766,0,1,0,1.834-1.981A1.924,1.924,0,0,0,56.033,49.2Z" fill="#141414"/>
        <path id="Path_356" data-name="Path 356" d="M39.583,74.694c.541.48,2.665.249,3.35.193a5.128,5.128,0,0,0,3.357-1.249c.959-1.018.8-2.76.864-4.057.019-.37.212-1.373-.051-1.715l3.058-.063c-.271.006-.016,4.3.066,4.658A2.969,2.969,0,0,0,52.17,74.4a9.5,9.5,0,0,0,2.91.574c.24.013,2.59.114,2.644-.125a.915.915,0,0,1-.381.477,59.321,59.321,0,0,1-5.426,3.691s-8.04-.354-8.236-.607S39.591,74.7,39.583,74.694Z" fill="#141414"/>
        <path id="Path_357" data-name="Path 357" d="M55.821,65.56a8.876,8.876,0,0,1-6.56,3.161c-3.8.24-7.1-1.466-8.125-3.979,0-.036.045-.067.086-.1a9.044,9.044,0,0,1,1.608-.836l11.061.111A2.929,2.929,0,0,1,55.821,65.56Z" fill="#fdfeff"/>
        <g id="Group_94" data-name="Group 94">
          <path id="Path_358" data-name="Path 358" d="M38.688,76.087c.058-2.3.348-9.643,1.575-11.681l.019-.146.371-.325a9.911,9.911,0,0,1,1.845-.972,13.639,13.639,0,0,1,6.566-.894,24.285,24.285,0,0,1,3.811.626l.3.077c.345.087.684.172,1.02.293a3.811,3.811,0,0,1,2.46,2.141,14.018,14.018,0,0,1,.863,4.172c.034.353.07.706.113,1.057a15.9,15.9,0,0,1-.207,5.6l-1.767-.415a14.188,14.188,0,0,0,.171-4.972c-.044-.358-.08-.724-.118-1.092a12.323,12.323,0,0,0-.729-3.645,2.024,2.024,0,0,0-1.394-1.139,8.7,8.7,0,0,0-.854-.242l-.309-.079a22.441,22.441,0,0,0-3.524-.577,11.867,11.867,0,0,0-5.718.767,8.027,8.027,0,0,0-1.366.695l-.017.016c-.628.736-1.179,6.168-1.3,10.781Z" fill="#141414"/>
        </g>
        <g id="Group_95" data-name="Group 95">
          <path id="Path_359" data-name="Path 359" d="M46.279,57.8a.248.248,0,0,1-.055-.478l2.069-.779a1.523,1.523,0,0,0,1.068-1.4l-.1-6.947a.25.25,0,1,1,.5-.007l.1,6.946A2.011,2.011,0,0,1,48.473,57l-2.07.78a.243.243,0,0,1-.124.016Z" fill="#141414"/>
        </g>
      </g>
    </g>
  </g>
</svg>
