<svg xmlns="http://www.w3.org/2000/svg" xmlns:xlink="http://www.w3.org/1999/xlink" width="96.666" height="96.666" viewBox="0 0 96.666 96.666">
  <defs>
    <clipPath id="clip-path">
      <circle id="Ellipse_15" data-name="Ellipse 15" cx="48.333" cy="48.333" r="48.333" transform="translate(1.814 2.346)"/>
    </clipPath>
    <linearGradient id="linear-gradient" x1="0.5" y1="0.778" x2="0.5" y2="1.167" gradientUnits="objectBoundingBox">
      <stop offset="0" stop-color="#010101"/>
      <stop offset="1" stop-color="#3c5c70"/>
    </linearGradient>
    <linearGradient id="linear-gradient-2" x1="0.5" y1="0.778" x2="0.5" y2="1.166" gradientUnits="objectBoundingBox">
      <stop offset="0" stop-color="#010101"/>
      <stop offset="1" stop-color="#2f4959"/>
    </linearGradient>
    <linearGradient id="linear-gradient-3" x1="0.5" y1="0.152" x2="0.5" y2="0.629" gradientUnits="objectBoundingBox">
      <stop offset="0" stop-color="#d4866f"/>
      <stop offset="1" stop-color="#fbc2a8"/>
    </linearGradient>
    <radialGradient id="radial-gradient" cx="0.5" cy="0.5" r="0.711" gradientTransform="matrix(0.702, 0.054, -0.027, 0.701, -6.263, -15.979)" gradientUnits="objectBoundingBox">
      <stop offset="0" stop-color="#fdd8bd"/>
      <stop offset="1" stop-color="#fbc2a8"/>
    </radialGradient>
    <radialGradient id="radial-gradient-2" cx="0.452" cy="0.5" r="0.507" gradientTransform="matrix(0.341, 0.974, -1.026, 0.16, -104.398, 13.721)" gradientUnits="objectBoundingBox">
      <stop offset="0" stop-color="#f7a092"/>
      <stop offset="1" stop-color="#fbc2a8"/>
    </radialGradient>
    <radialGradient id="radial-gradient-3" cx="0.853" cy="0.508" r="0.522" gradientTransform="matrix(-0.7, 0.949, -1.478, -0.221, -315.563, 42.567)" xlink:href="#radial-gradient-2"/>
    <linearGradient id="linear-gradient-5" x1="0.5" y1="0.064" x2="0.5" y2="0.85" gradientTransform="matrix(1, 0, 0, 1, 0, 0)" xlink:href="#radial-gradient"/>
    <linearGradient id="linear-gradient-6" x1="0.5" y1="-0.216" x2="0.5" y2="0.968" xlink:href="#linear-gradient-3"/>
    <linearGradient id="linear-gradient-7" x1="0.5" y1="-0.216" x2="0.5" y2="0.968" xlink:href="#linear-gradient-3"/>
    <linearGradient id="linear-gradient-8" x1="0.5" y1="0.415" x2="0.5" y2="1.1" gradientUnits="objectBoundingBox">
      <stop offset="0" stop-color="#d4866f"/>
      <stop offset="1" stop-color="#f9ad97"/>
    </linearGradient>
    <linearGradient id="linear-gradient-9" x1="0.268" y1="0.389" x2="0.861" y2="0.727" gradientTransform="matrix(1, 0, 0, 1, 0, 0)" xlink:href="#radial-gradient"/>
    <linearGradient id="linear-gradient-10" x1="0.941" y1="0.353" x2="0.068" y2="0.687" gradientTransform="matrix(1, 0, 0, 1, 0, 0)" xlink:href="#radial-gradient"/>
    <linearGradient id="linear-gradient-11" x1="-0.727" y1="0.832" x2="1.039" y2="0.334" xlink:href="#linear-gradient-3"/>
    <linearGradient id="linear-gradient-12" x1="2.113" y1="0.983" x2="0.111" y2="0.294" xlink:href="#linear-gradient-3"/>
    <linearGradient id="linear-gradient-13" x1="0.5" y1="0.729" x2="0.5" y2="-0.028" gradientTransform="matrix(1, 0, 0, 1, 0, 0)" xlink:href="#radial-gradient"/>
    <linearGradient id="linear-gradient-14" x1="0.5" y1="0.175" x2="0.5" y2="1.34" xlink:href="#linear-gradient-3"/>
    <linearGradient id="linear-gradient-15" x1="0.5" y1="0.54" x2="0.5" y2="0.067" gradientUnits="objectBoundingBox">
      <stop offset="0" stop-color="#aa5740"/>
      <stop offset="1" stop-color="#e9a68d"/>
    </linearGradient>
    <radialGradient id="radial-gradient-4" cx="0.533" cy="0.705" r="2.637" gradientTransform="matrix(0.188, 0.054, -0.01, 0.999, -22.969, 0.683)" gradientUnits="objectBoundingBox">
      <stop offset="0" stop-color="#f49077"/>
      <stop offset="1" stop-color="#f3735d"/>
    </radialGradient>
    <linearGradient id="linear-gradient-16" x1="0.5" y1="0.429" x2="0.5" y2="0.036" gradientUnits="objectBoundingBox">
      <stop offset="0" stop-color="#010101"/>
      <stop offset="1" stop-color="#172329"/>
    </linearGradient>
    <linearGradient id="linear-gradient-17" x1="-197.367" y1="0.429" x2="-197.367" y2="0.036" xlink:href="#linear-gradient-16"/>
    <linearGradient id="linear-gradient-18" x1="0.5" y1="0.984" x2="0.5" y2="-0.311" gradientUnits="objectBoundingBox">
      <stop offset="0" stop-color="#010101"/>
      <stop offset="1" stop-color="#2e4753"/>
    </linearGradient>
    <linearGradient id="linear-gradient-19" x1="0.5" y1="2.441" x2="0.5" y2="0.253" gradientUnits="objectBoundingBox">
      <stop offset="0" stop-color="#010101"/>
      <stop offset="1" stop-color="#396475"/>
    </linearGradient>
    <linearGradient id="linear-gradient-20" x1="0.616" y1="0.162" x2="0.33" y2="1.308" xlink:href="#linear-gradient"/>
    <linearGradient id="linear-gradient-21" x1="0.5" y1="-2.247" x2="0.5" y2="2.937" xlink:href="#linear-gradient-18"/>
    <linearGradient id="linear-gradient-22" x1="0.602" y1="0.048" x2="0.336" y2="1.347" gradientUnits="objectBoundingBox">
      <stop offset="0" stop-color="#010101"/>
      <stop offset="1" stop-color="#2f4857"/>
    </linearGradient>
    <linearGradient id="linear-gradient-23" x1="0.5" y1="-1.478" x2="0.5" y2="0.456" xlink:href="#linear-gradient-18"/>
    <linearGradient id="linear-gradient-24" x1="0.5" y1="0.984" x2="0.5" y2="-0.311" gradientUnits="objectBoundingBox">
      <stop offset="0" stop-color="#010101"/>
      <stop offset="1" stop-color="#20323b"/>
    </linearGradient>
    <linearGradient id="linear-gradient-25" x1="0.5" y1="0.872" x2="0.5" y2="0.03" gradientUnits="objectBoundingBox">
      <stop offset="0" stop-color="#381710"/>
      <stop offset="1" stop-color="#010101"/>
    </linearGradient>
    <linearGradient id="linear-gradient-26" x1="0.5" y1="0.928" x2="0.5" y2="0.031" gradientUnits="objectBoundingBox">
      <stop offset="0.006" stop-color="#652513"/>
      <stop offset="1" stop-color="#230d0d"/>
    </linearGradient>
    <linearGradient id="linear-gradient-27" x1="0.5" y1="0.584" x2="0.5" y2="1.088" gradientUnits="objectBoundingBox">
      <stop offset="0" stop-color="#010101"/>
      <stop offset="1" stop-color="#77736e"/>
    </linearGradient>
    <linearGradient id="linear-gradient-28" x1="0.5" y1="0.866" x2="0.5" y2="0.029" xlink:href="#linear-gradient-25"/>
    <linearGradient id="linear-gradient-29" x1="0.5" y1="0.928" x2="0.5" y2="0.031" xlink:href="#linear-gradient-26"/>
    <linearGradient id="linear-gradient-30" x1="0.5" y1="0.584" x2="0.5" y2="1.088" xlink:href="#linear-gradient-27"/>
  </defs>
  <g id="girl_2" data-name="girl 2" transform="translate(-1.814 -2.346)">
    <g id="Group_60" data-name="Group 60">
      <path id="Path_223" data-name="Path 223" d="M48.333,0A48.333,48.333,0,1,1,0,48.333,48.333,48.333,0,0,1,48.333,0Z" transform="translate(1.814 2.346)" fill="#efefef"/>
      <g id="Group_59" data-name="Group 59" clip-path="url(#clip-path)">
        <path id="Path_168" data-name="Path 168" d="M83.6,65.307a40.166,40.166,0,0,0-.4-4.266c-.1-.756-.2-1.536-.277-2.3-.282-2.859-.5-6-.655-9.614a55.5,55.5,0,0,0-1.38-10.86,39.382,39.382,0,0,0-4.5-10.808A31.951,31.951,0,0,0,68.5,18.331a29.658,29.658,0,0,0-11.817-5.444,25.178,25.178,0,0,0-5.2-.529,32.863,32.863,0,0,0-8.222,1.117,35.153,35.153,0,0,0-7.094,2.584,1.023,1.023,0,0,0-.325.323c-.026.035-.049.067-.072.092l-.582.673c-.392.458-.793.936-1.228,1.462-.711.862-1.442,1.782-2.172,2.734-1.413,1.846-2.763,3.768-4.011,5.712a71.84,71.84,0,0,0-9.972,24.611,72.519,72.519,0,0,0-1.2,7.3,42.107,42.107,0,0,0-.091,7.62,26.974,26.974,0,0,0,1.414,6.947,22.919,22.919,0,0,0,2.7,5.166c1.7,2.474,6.365,8.258,13.145,8.706a12.042,12.042,0,0,0,2.236,1.46,14.331,14.331,0,0,1-1.048,2.268A9.353,9.353,0,0,1,31.3,94.616,19.97,19.97,0,0,1,27.13,96.2a.249.249,0,0,0-.177.275.252.252,0,0,0,.25.217l.284,0a53.437,53.437,0,0,1,10.84,1.625c.922.2,1.875.414,2.814.608A47.921,47.921,0,0,0,50.891,100c.927,0,1.853-.032,2.751-.1a46.293,46.293,0,0,0,8.108-1.5,47.959,47.959,0,0,1,8.268-1.5.284.284,0,0,0-.009-.566l-.178-.1a.167.167,0,0,0-.054-.025,18.509,18.509,0,0,1-4.756-1.929,9.111,9.111,0,0,1-2.2-1.918,15,15,0,0,0,6.5-5.849,19.611,19.611,0,0,0,2.53-7.452c.125-.882.2-1.665.235-2.389a16.154,16.154,0,0,1,.4,6.708c-.3,2.226-1.12,5.284-3.326,7.246a14.491,14.491,0,0,1-1.64.667,13.346,13.346,0,0,1-2.521.621.378.378,0,0,0-.333.384.364.364,0,0,0,.348.349c.38.024.76.037,1.133.037a14.59,14.59,0,0,0,6.987-1.667,15.477,15.477,0,0,0,5.431-5.105c2.466-3.658,4.014-8.372,4.728-14.411A44.249,44.249,0,0,0,83.6,65.307Z" fill="#010101"/>
        <g id="Group_58" data-name="Group 58">
          <path id="Path_169" data-name="Path 169" d="M80.06,70.53c-.252-.751-1-11.257-1-11.257l-5.5-3.5L63.047,70.031s-4.5,11.006-4.5,13.509,3.368,8.9,3.368,8.9C72.809,88,71.7,74.763,71.7,74.763c2.336,4.56,1.556,13.121-2.669,16.346l4.525-1.565,2.752-3s3.252-7.506,3.252-8.257S80.309,71.281,80.06,70.53ZM31.776,67.279c-1.751,4,4.753,18.262,4.753,18.262h3.5s1.751-7.506,2-8.756-3.5-9.756-3.5-9.756S33.528,63.276,31.776,67.279Z" fill="url(#linear-gradient)"/>
          <path id="Path_170" data-name="Path 170" d="M69.048,91.141c2.374-1.792,3.466-4.826,3.869-7.677a15.036,15.036,0,0,0-1.131-8.751.1.1,0,0,0-.192.051,18.7,18.7,0,0,1-.09,3.412,20.6,20.6,0,0,1-2.117,7.36,14.945,14.945,0,0,1-7.49,6.88c-.034.015-.009.072.025.06a14.729,14.729,0,0,0,7.177-6.1,21.618,21.618,0,0,0,2.7-11.615c-.064.018-.126.036-.191.052a14.9,14.9,0,0,1,1.12,8.6c-.378,2.805-1.437,5.856-3.726,7.671-.033.026.011.083.045.058Z" fill="url(#linear-gradient-2)"/>
          <g id="Group_46" data-name="Group 46">
            <path id="Path_171" data-name="Path 171" d="M69.708,96.446c-3.8-1-7.012-2.335-8.766-6.5-2.775-6.672-1.46-13.01-1.46-20.015H37.423c0,7,1.314,13.343-1.461,20.015-1.753,4.169-4.967,5.5-8.765,6.5h.292c6.427,0,12.559,2.391,18.845,3C58.313,100.617,61.38,97.113,70,96.614Z" fill="url(#linear-gradient-3)"/>
            <path id="Path_172" data-name="Path 172" d="M35.423,91.279a18.793,18.793,0,0,0,2.1-6.579,38.01,38.01,0,0,0,.29-6.994c-.086-2.6-.261-5.183-.328-7.778a.056.056,0,1,0-.112,0c-.111,4.857.639,9.726-.042,14.564a18.9,18.9,0,0,1-2.143,6.764,9.613,9.613,0,0,1-3.765,3.581A19.987,19.987,0,0,1,27.2,96.446s0,0,0,0a18.663,18.663,0,0,0,4.726-1.705A9.367,9.367,0,0,0,35.423,91.279Zm25.892-.3a9.332,9.332,0,0,0,3.411,3.611,17.406,17.406,0,0,0,4.981,1.855s0,0,0,0a18.637,18.637,0,0,1-4.818-1.956,9.66,9.66,0,0,1-3.551-3.947c-2.151-4.313-2.17-9.47-1.967-14.275.091-2.112.215-4.224.166-6.34a.056.056,0,1,0-.112,0c-.123,4.765-.716,9.6-.1,14.347A20.034,20.034,0,0,0,61.315,90.981ZM70,96.58a40.886,40.886,0,0,0-8.421,1.471,44.508,44.508,0,0,1-8.676,1.519,47.6,47.6,0,0,1-12.359-1.131c-4.328-.9-8.634-2.02-13.056-2a0,0,0,0,0,0,.009c4.635.049,9.166,1.3,13.7,2.237a45.314,45.314,0,0,0,12.434.964,45.7,45.7,0,0,0,8.063-1.5A47.432,47.432,0,0,1,70,96.647C70.038,96.646,70.039,96.578,70,96.58Z" fill="url(#linear-gradient-3)"/>
          </g>
          <g id="Group_50" data-name="Group 50">
            <path id="Path_173" data-name="Path 173" d="M75.478,49.19l-.11-3.781-3-2.112s-10.23-7.228-11.676-9.9-4.781-8.117-4.781-8.117a14.539,14.539,0,0,0-7.339,6.005c-2.558,4.448-8.117,15.122-11.119,19.125s-4.7,14.511-4.7,14.511c.667,2.168,1.084,4.336,2.585,6.171a28.418,28.418,0,0,0,10.09,8.923c6.838,3.67,9.53,4.723,13.482,4.419,4.336-.333,6.949-3.475,9.117-7.561s5.5-9.2,6.506-14.205c1.19-5.956.166-8.006.166-8.006Z" fill="#fbc2a8"/>
            <path id="Path_174" data-name="Path 174" d="M57.517,65.294c-4.781-.261-8.808,2.249-8.991,5.605s3.546,6.291,8.327,6.551,8.81-2.249,8.992-5.605S62.3,65.555,57.517,65.294Z" fill="url(#radial-gradient)"/>
            <path id="Path_175" data-name="Path 175" d="M42.319,74c4.392-1.024,6.767-6.928,5.306-13.185s-6.205-10.495-10.6-9.472c-.076.019-.15.042-.225.063-2.6,4.511-4.051,13.518-4.051,13.518.667,2.168,1.084,4.336,2.585,6.171,0,0,.238.383.718,1.013A7.121,7.121,0,0,0,42.319,74Z" fill="url(#radial-gradient-2)"/>
            <path id="Path_176" data-name="Path 176" d="M74.422,55.165l.471-3.317c-3.706.2-7.533,3.673-9.22,8.75-1.992,6-.257,11.985,3.869,13.536,1.9-3.4,3.961-7.21,4.712-10.961C75.446,57.216,74.422,55.165,74.422,55.165Z" fill="url(#radial-gradient-3)"/>
            <path id="Path_177" data-name="Path 177" d="M51.851,48.579s6,1.668,11.173.167S70.2,46.412,70.2,46.412s.166-3.836-1.669-5.671-5.671-9.673-7.34-10.84-2.168-4.17-5-4.5-8.505,1.668-10.507,3.67-5.5,9.174-5.671,9.674a36.32,36.32,0,0,0,.334,5.671,4.057,4.057,0,0,0,2.169,2.5C43.343,47.411,51.851,48.579,51.851,48.579Z" fill="url(#linear-gradient-5)"/>
            <path id="Path_178" data-name="Path 178" d="M39.59,53.332s-2.919.167-2.751-1.5,3-5.836,5-5.836a55.66,55.66,0,0,1,6.589.833l2.251.667,1.168-.167s1.5,4.671-1,6.922c0,0-3.836-.167-4.169-.167S39.59,53.332,39.59,53.332Z" fill="url(#linear-gradient-6)"/>
            <path id="Path_179" data-name="Path 179" d="M63.273,54.25a10.874,10.874,0,0,1-.916-6.839l2.085-.083,2.334-.834s4.671-.584,7.422.75a13.1,13.1,0,0,1,1.252,2.418c-.083.25-1,3.586-1,3.586l-2.5.333Z" fill="url(#linear-gradient-7)"/>
            <path id="Path_180" data-name="Path 180" d="M74.7,54.666l.778-5.476-.11-3.781-3-2.112s-10.23-7.228-11.676-9.9-4.781-8.117-4.781-8.117a14.539,14.539,0,0,0-7.339,6.005c-2.558,4.448-8.117,15.122-11.119,19.125s-4.7,14.511-4.7,14.511c.667,2.168,1.084,4.336,2.585,6.171a24.834,24.834,0,0,0,4.078,4.655c-.381-1.343-3.622-13.389.259-21.78,4.114-8.9,8.117-14.454,10.007-19.013a16.343,16.343,0,0,1,5.114-6.784A27.473,27.473,0,0,0,59.02,38.96c3.337,4.559,3.893,5.672,8.563,7.562,0,0,5.669,2.335,5.559,6.782-.1,4.192,1.37,7.4.981,11.011.161-.548.3-1.1.409-1.643C75.724,56.716,74.7,54.666,74.7,54.666Z" fill="url(#linear-gradient-8)"/>
            <g id="Group_48" data-name="Group 48">
              <g id="Group_47" data-name="Group 47">
                <path id="Path_181" data-name="Path 181" d="M53.6,66.383c.082.551.769.2,1-.039.3-.315.7-1.1.51-1.544-.507-1.165-1.332,1.055-1.47,1.375Z" fill="url(#linear-gradient-9)"/>
                <path id="Path_182" data-name="Path 182" d="M62.522,66.8c-.35-.167-1.218-1.642-.751-1.909.645-.368.78,1.407.836,1.659Z" fill="url(#linear-gradient-10)"/>
                <path id="Path_183" data-name="Path 183" d="M62.189,64.925a6.222,6.222,0,0,1-1.417-1.5,11.37,11.37,0,0,1-.46-5.505,10.14,10.14,0,0,1,.668-2.251c.25-.208,2.836,4.67,2.794,7.213a5.448,5.448,0,0,1-1.167,3.67,7.777,7.777,0,0,0-.127-1.167Z" fill="url(#linear-gradient-11)"/>
                <path id="Path_184" data-name="Path 184" d="M53.851,65.534a7.112,7.112,0,0,1,1-1.723c1.71-1.975,1.375-7.45.876-8.062s-4.045,1.612-4.712,4.281-.39,5.393,2.5,7.34a2.465,2.465,0,0,1,.166-1.446Z" fill="url(#linear-gradient-12)"/>
                <path id="Path_185" data-name="Path 185" d="M60.577,65.979c-.19,1-1.194,1.115-2.009.816-2.24-.82-1.048-3.473-1.048-5.208a70.246,70.246,0,0,0-.558-7.282l2.836.388s0,6.116.223,7.729S60.968,64.255,60.577,65.979Z" fill="url(#linear-gradient-13)"/>
                <path id="Path_186" data-name="Path 186" d="M57.132,63.589a3.313,3.313,0,0,1,3.445-.278l-.056-.443a3.553,3.553,0,0,0-3.5.276Z" fill="#fbc2a8"/>
                <path id="Path_187" data-name="Path 187" d="M53.629,67.146a1.461,1.461,0,0,0,1.057-.11,8.821,8.821,0,0,1,2.056-.889,11.191,11.191,0,0,1,1.112.833,2.693,2.693,0,0,0,2,.556c.722-.165,1.167-1.334,1.167-1.334A1.546,1.546,0,0,1,62.3,67.536a1.578,1.578,0,0,1-.778.724,3.2,3.2,0,0,1-3.114,2.058A4.747,4.747,0,0,1,54.018,68.2a3,3,0,0,1-.334-.722Z" fill="url(#linear-gradient-14)"/>
                <path id="Path_188" data-name="Path 188" d="M55.6,67.371a1.67,1.67,0,0,1,1.305-.225S56.519,67.954,55.6,67.371Z" fill="#010101"/>
                <path id="Path_189" data-name="Path 189" d="M60.829,67.093s.5-.112.582.166c0,0-.056.333-.639.083Z" fill="#010101"/>
              </g>
              <path id="Path_190" data-name="Path 190" d="M53.674,67.265a2.883,2.883,0,0,1,.309-1.945c.01-.023-.026-.036-.038-.017a2.817,2.817,0,0,0-.432,2.1,1.874,1.874,0,0,0,1.5,1.252.011.011,0,0,0,.007-.021A2.184,2.184,0,0,1,53.674,67.265ZM56.643,67a2.412,2.412,0,0,0-1.46.59s0,.012,0,.008a3.025,3.025,0,0,1,1.125-.437.979.979,0,0,1,1.13.613c.014.029.054.008.051-.021A.892.892,0,0,0,56.643,67Zm4.524,0a.668.668,0,0,0-.233-.022,2.541,2.541,0,0,0,.155-.6.012.012,0,1,0-.023-.007,3.922,3.922,0,0,1-2.1,2.389c-.005,0,0,.015,0,.011a3.1,3.1,0,0,0,1.92-1.683c.06.011.127,0,.187,0a.519.519,0,0,1,.233.074.336.336,0,0,1,.077.426c-.011.03.038.051.051.021a.428.428,0,0,0-.041-.488A.46.46,0,0,0,61.167,67Zm1.039-2.087c-.017-.02-.044.006-.035.025.534,1.064.623,2.667-.607,3.3-.027.013-.008.06.021.051C62.937,67.823,63,65.909,62.206,64.908Zm-1.994-3.935c.016.212.038.422.064.63C60.251,61.393,60.229,61.183,60.212,60.973Zm.1-3.055c0-.015-.023-.017-.025,0a13.383,13.383,0,0,0-.075,3.059A16.72,16.72,0,0,1,60.313,57.918Zm.362,5.857a5.172,5.172,0,0,1,.512,1.871,0,0,0,0,0,.006,0c.062-1.167-.55-2.266-.8-3.38-.049-.218-.085-.44-.118-.664.01.074.019.146.027.221A9.563,9.563,0,0,0,60.675,63.775Z" fill="url(#linear-gradient-15)"/>
            </g>
            <path id="Path_191" data-name="Path 191" d="M32.747,64.925c.339,1.114.625,2.245,1.023,3.342a12.1,12.1,0,0,0,.613,1.4c.267.519.639.948.94,1.437a15.248,15.248,0,0,0,1.013,1.4,29.38,29.38,0,0,0,8.173,7.045,68.013,68.013,0,0,0,6.178,3.188,20.968,20.968,0,0,0,4.37,1.536,13.618,13.618,0,0,0,3.973.212,8.879,8.879,0,0,0,4.795-1.95,15.715,15.715,0,0,0,3.576-4.41c1.14-1.933,2.189-3.933,3.265-5.9a46.816,46.816,0,0,0,3.063-6.529A25.316,25.316,0,0,0,75.1,58.966a13.831,13.831,0,0,0-.1-3.31,3.792,3.792,0,0,0-.276-1.007c-.019-.036-.072,0-.055.033A4.649,4.649,0,0,1,75,56.236a20.049,20.049,0,0,1-.316,5.333c-.818,4.888-3.315,9.168-5.7,13.433-1.929,3.449-3.788,7.4-7.751,8.882-2.884,1.075-6.169.507-8.954-.573a55.676,55.676,0,0,1-5.7-2.726,35.062,35.062,0,0,1-5.975-3.842,25.526,25.526,0,0,1-5.2-5.566A15.61,15.61,0,0,1,34.1,69.029a33.655,33.655,0,0,1-1.344-4.105c0-.009-.011-.005-.01,0Z" fill="#aa5740"/>
            <g id="Group_49" data-name="Group 49">
              <path id="Path_192" data-name="Path 192" d="M48.9,73.177A29.789,29.789,0,0,0,55.3,76.948s4.562.583,6.368-.4a8.169,8.169,0,0,0,1.248-1.435,17.04,17.04,0,0,1,2.38-2.293l-2.69.354s-3-.08-3.252-.094-4.607.249-4.607.249Z" fill="#f3735d"/>
              <path id="Path_193" data-name="Path 193" d="M53.6,75.1a33.274,33.274,0,0,1,3.931-.119c2.42.049,4.48-.216,4.639-.04s-.25,1.491-3.719,1.551S53.875,76.162,53.6,75.1Z" fill="url(#radial-gradient-4)"/>
              <path id="Path_194" data-name="Path 194" d="M62.6,73.171s-3-.08-3.252-.094-4.607.249-4.607.249L48.9,73.177s.956.736,2.262,1.587l.033,0s3.6-.263,5.1-.223a21.47,21.47,0,0,0,3.967.007,12.039,12.039,0,0,1,3.146-.039c.733-.761,1.875-1.69,1.875-1.69Zm-1.007,3.118c-1.581.666-5.155.346-5.908.387a7.194,7.194,0,0,1-2.223-.579l-.027.015a14.584,14.584,0,0,0,1.859.836s4.562.583,6.368-.4a9.233,9.233,0,0,0,.881-.929.3.3,0,0,0-.034-.026Z" fill="#f26353"/>
              <path id="Path_195" data-name="Path 195" d="M64.89,72.545c-1.1.356-1.1.356-1.763.153a7.37,7.37,0,0,0-2.461-.8c-.921.034-1.3.765-1.884.815s-.884-.631-1.629-.756-2.617.524-3.8.713-3.117.5-3.117.5c-1.249-.068-3.67-1.619-3.67-1.619a12.134,12.134,0,0,0,4.128,2.4,52.863,52.863,0,0,0,6.29-.068l.141.085c.494.11.906.216,1.319.322a2.876,2.876,0,0,0,.995-.356l.193,0a22.8,22.8,0,0,1,3.348-.152c1.175-.1,3.428-1.567,3.828-2.8A4.457,4.457,0,0,1,64.89,72.545Z" fill="#f26353"/>
              <path id="Path_196" data-name="Path 196" d="M57.05,73.841c-.885-.042-1.784.043-2.671.056-.955.015-1.91-.009-2.864-.04a4.406,4.406,0,0,1-1.338-.149,9.738,9.738,0,0,1-1.312-.6,12.275,12.275,0,0,1-2.289-1.571c-.007-.007-.018,0-.011.01a12.094,12.094,0,0,0,2.139,1.54,11.878,11.878,0,0,0,1.183.58,3.154,3.154,0,0,0,1.129.407c1.012.051,2.024.048,3.038.021a20.5,20.5,0,0,0,3-.2A.031.031,0,0,0,57.05,73.841ZM66.8,70.976a5.283,5.283,0,0,1-2.73,2.42,4.979,4.979,0,0,1-1.986.316,14.166,14.166,0,0,0-2.4.176,4.05,4.05,0,0,0,.326-.248c.032-.027-.006-.072-.042-.058a13.286,13.286,0,0,1-1.4.577,3.629,3.629,0,0,1-1.432-.208c-.011,0-.019.013-.008.014.273.067.543.146.814.216a.982.982,0,0,1,.437.165.107.107,0,0,0,.092.028,2.64,2.64,0,0,0,1.143-.436.029.029,0,0,0,.032.02,22.354,22.354,0,0,1,3.04-.1,2.772,2.772,0,0,0,.717-.043,4.288,4.288,0,0,0,.809-.38,4.847,4.847,0,0,0,2.613-2.452C66.824,70.971,66.808,70.965,66.8,70.976Z" fill="#c22638"/>
            </g>
            <path id="Path_197" data-name="Path 197" d="M34.448,47.661a26.572,26.572,0,0,1,8.609-.917,32.3,32.3,0,0,1,4.083.917c1.065.418,3.728.5,4.793-.333,0,0-2.486-.417-4.528-1A17.434,17.434,0,0,0,34.448,47.661Z" fill="url(#linear-gradient-16)"/>
            <path id="Path_198" data-name="Path 198" d="M74.782,47.661a14.047,14.047,0,0,0-6.172-.917,17.734,17.734,0,0,0-2.929.917c-.764.418-2.673.5-3.437-.333a26.733,26.733,0,0,0,3.247-1A9.343,9.343,0,0,1,74.782,47.661Z" fill="url(#linear-gradient-17)"/>
          </g>
          <g id="Group_51" data-name="Group 51">
            <path id="Path_199" data-name="Path 199" d="M83.038,62.755c-.833-5.337-1.166-14.176-1.166-14.176-.334-10.84-3.5-18.18-8.34-24.685A28.7,28.7,0,0,0,52.016,12.719a37.39,37.39,0,0,0-15.678,3.669C26.664,27.4,20.826,38.572,18.158,51.748c-1.5,6.671-2.168,14.177-.167,20.848,2,6.5,8.673,14.176,16.012,14.511,3.5,3,11.591,4.754,14.927.418l.084-.083c-4.667,2.064-8.631.585-11.717-2.395l.042-.024c-4.253-7.424-3.753-19.432-3.753-19.432.167-5.17,4.5-14.678,6.421-17.1a68.432,68.432,0,0,0,8.506-13.843c2.752-6.171,6.588-8.006,6.588-8.006,2.336,1.251,2,8.173,6,13.76a14.891,14.891,0,0,0,10.007,6.088,12.364,12.364,0,0,1-6.838-6.088c2,4,9.424,6.839,9.424,6.839-1.158-.609-3.2-3.042-4.224-4.309a37.036,37.036,0,0,0,4.892,4.393A42.713,42.713,0,0,1,74.114,52a20.276,20.276,0,0,0,.5,5.5c.166.834,1.084,5.087,1.084,5.087,1.668,7.339-.333,22.015-2.836,25.519s-7.839,4.169-7.839,4.169C82.871,93.444,83.874,68.093,83.038,62.755Z" fill="url(#linear-gradient-18)"/>
            <path id="Path_200" data-name="Path 200" d="M73.532,23.894A28.7,28.7,0,0,0,52.016,12.719a37.39,37.39,0,0,0-15.678,3.669q-.514.587-1.014,1.173l.347.05,2.112-.89s8.9-4.113,17.234-2.668a34.294,34.294,0,0,1,19.16,10.732C73.967,24.486,73.751,24.189,73.532,23.894ZM65,17.807a6.6,6.6,0,0,0-2.36-1.275c1.264,1.716-1.12,4.556-2.846,5.159-2.206.772-5.69-.263-7.756-.687-3.345-.687-11.863-.2-12.256-5.01l-2,.75a4.956,4.956,0,0,0-.219,1.212c.42-.082,1.028.159,1.444.088-2.767,4.711,6.424,3.606,8.538,3.7,2.04.087,3.193,1.009,5,1.695,1.206.456,3.108.22,3.495,1.474,1.048-3.418,4.441-.028,6.2-1.713,1.077-1.029-.3-2.375,1.059-3.195.935-.563,2.225.118,3.227.387C65.382,19.713,65.792,18.677,65,17.807Z" fill="url(#linear-gradient-19)"/>
            <path id="Path_201" data-name="Path 201" d="M41.033,31.449c-2.369-.319-3.733-1.672-4.815-3.69-.994-1.851-1.192-4.3-3.9-3.8-.054-2.389,2.12-4.123,2.816-6.171-8.953,10.558-14.417,21.34-16.972,33.958-1.5,6.671-2.168,14.177-.167,20.848,2,6.5,8.673,14.176,16.012,14.511,3.5,3,11.591,4.754,14.927.418l.084-.083c-4.667,2.064-8.631.585-11.717-2.395l.042-.024c-4.253-7.424-3.753-19.432-3.753-19.432.167-5.17,4.5-14.678,6.421-17.1a68.432,68.432,0,0,0,8.506-13.843A19.541,19.541,0,0,1,52.776,28.4C49.4,30.01,44.833,31.96,41.033,31.449ZM83.038,62.755c-.833-5.337-1.166-14.176-1.166-14.176-.276-8.977-2.5-15.55-6-21.239-.031,1.15-.192,2.242-.742,2.676-1.415,1.119-3.12-.928-3.331-2.438-.076,1.289-.087,2.848-1,3.7-2.212-1.422-4.726-2.983-7.441-1.964-1.3.485-2.1,2.029-3.565,1.951-1.277-.068-2.739-1.728-3.251-2.764l-.065.079c1.067,2.744,1.642,7.656,4.627,11.824a14.891,14.891,0,0,0,10.007,6.088,12.364,12.364,0,0,1-6.838-6.088c2,4,9.424,6.839,9.424,6.839-1.158-.609-3.2-3.042-4.224-4.309a37.036,37.036,0,0,0,4.892,4.393A42.713,42.713,0,0,1,74.116,52a20.276,20.276,0,0,0,.5,5.5c.166.834,1.084,5.087,1.084,5.087,1.668,7.339-.333,22.015-2.836,25.519s-7.839,4.169-7.839,4.169C82.871,93.444,83.874,68.093,83.038,62.755Z" fill="url(#linear-gradient-20)"/>
            <path id="Path_202" data-name="Path 202" d="M46.473,37.882c-.086.111-.175.222-.262.333A3.565,3.565,0,0,0,46.473,37.882Zm-3.686,1.857c-1.806.29-3.571.738-5.448.2a22.724,22.724,0,0,1-4.667-2.282c-1.06-.6-2.153-1.482-3.423-1.476-.869,0-1.118.443-1.724-.218-.488-.534-.076-1.7-1.067-1.579a2.118,2.118,0,0,1-.017-.65l.222-1.334c-1.9,1.483-2.294,5.011-3.232,7.076a3.069,3.069,0,0,1,1.9-1.189c1.041-.062,1.17.67,1.921,1.088.816.456,1.4.057,2.277-.166a9.348,9.348,0,0,1,3.61-.142c2.078.287,3.747,1.488,5.758,2a8.281,8.281,0,0,1,2.446.637c.85.558.544.975.549,1.887,1.434-1.8,2.913-3.574,4.321-5.381A5.288,5.288,0,0,1,42.787,39.739Zm24.574-.889a12.688,12.688,0,0,1-6.672-1.557l.556,1.223a5.839,5.839,0,0,0,2.01,2.518,2.39,2.39,0,0,1-.1-1.167c1.116-.02,1.793.538,2.982.23a7.854,7.854,0,0,1,3.009-.583c1.305.126,4.307.909,4.9,2.187-.185-.964.045-2.82-.646-3.507C72.913,39.45,68.677,38.781,67.361,38.85Zm12.206-2.188a5.425,5.425,0,0,1-4.313,2.076l-.333.334a7.6,7.6,0,0,1,.447,2c.143-.977,2-.9,2.642-1.462.664-.587.715-2.5,1.891-1.657A3.833,3.833,0,0,0,79.567,36.662Zm-4.2,4.651a2.448,2.448,0,0,0,0-.246A.84.84,0,0,0,75.367,41.313Z" fill="url(#linear-gradient-21)"/>
            <path id="Path_203" data-name="Path 203" d="M75.872,27.34c-.031,1.15-.192,2.242-.742,2.676-1.415,1.119-3.12-.928-3.331-2.438-.076,1.289-.087,2.848-1,3.7-2.212-1.422-4.726-2.983-7.441-1.964-1.3.485-2.1,2.029-3.565,1.951-1.277-.068-2.739-1.728-3.251-2.764l-.065.079c.6,1.548,1.048,3.786,1.856,6.189a.022.022,0,0,1,.011,0c3.148.239,5.668-2.218,8.848-2.364,3.025-.139,5.764-.509,7.881,1.939.291-1.35,1.674-2.324,3.051-2.815A39.939,39.939,0,0,0,75.872,27.34ZM41.033,31.449c-2.369-.319-3.733-1.672-4.815-3.69-.994-1.851-1.192-4.3-3.9-3.8-.054-2.389,2.12-4.123,2.816-6.171a85.242,85.242,0,0,0-8.8,12.357,11.015,11.015,0,0,1,5.636-.045c1.824.462,3.447,1.453,5.212,2.007,3.762,1.18,8.008.791,11.959.968.049,0,.1.006.147.01A18.608,18.608,0,0,1,52.775,28.4C49.4,30.01,44.833,31.96,41.033,31.449Z" fill="#131f23"/>
            <path id="Path_204" data-name="Path 204" d="M83.038,62.755c-.833-5.337-1.166-14.176-1.166-14.176a50.569,50.569,0,0,0-.8-7.676c.223,3.492.293,10.437.8,15.6.583,6,2,8.424-.251,19.348A21.722,21.722,0,0,1,71.029,90.776c3.085-1.835,4.587-6.422,5.755-14.345A43.9,43.9,0,0,0,75.7,59.5a21.165,21.165,0,0,1-.918-8.089c.416-3-.249-11.008-.416-13.51a40.554,40.554,0,0,0-1.446-6.728c.147.678.271,1.458.382,2.306.517,3.972.7,9.448,1.164,12.972-1.236-.738-4.854-3.713-4.854-3.713l.295.673a39.681,39.681,0,0,0,4.459,3.914A42.713,42.713,0,0,1,74.114,52a20.276,20.276,0,0,0,.5,5.5c.166.834,1.084,5.087,1.084,5.087,1.668,7.339-.333,22.015-2.836,25.519s-7.839,4.169-7.839,4.169C82.871,93.444,83.874,68.093,83.038,62.755ZM73.7,47.245a18.618,18.618,0,0,1-3.744-3.722l.825,1.887a51.139,51.139,0,0,1-6.19-4.45C66.954,44.668,73.7,47.245,73.7,47.245ZM40.373,89.908c-.446-.078-.89-.18-1.325-.295C39.483,89.729,39.926,89.83,40.373,89.908Zm-2.713-.74a14.33,14.33,0,0,1-1.991-.918A14.33,14.33,0,0,0,37.66,89.168Zm1.18-41.089c-1.537,1.536-3.424,6.7-4,8.337-1.406-9.145-.422-14.592-.422-14.592-1.5,4.921-1.055,9.585-.918,14.677-2.009,7.186-.008,20.314.3,22.2A48.541,48.541,0,0,1,30.334,71.6c.9,4.334,3.322,9.938,6.964,13.452l.041-.024c-4.253-7.424-3.753-19.432-3.753-19.432.167-5.17,4.5-14.678,6.421-17.1a68.432,68.432,0,0,0,8.506-13.843q.25-.56.511-1.072c-.111-.009-.177-.011-.177-.011A99.3,99.3,0,0,1,38.84,48.079ZM24.83,66.258a36.478,36.478,0,0,1,.5-9.507,30.78,30.78,0,0,0,5.054,27.96,21.761,21.761,0,0,1-12.56-18.12c-1.2-12.943,5.6-30.5,7.437-34.544a70.188,70.188,0,0,0-7.1,19.7c-1.5,6.671-2.168,14.177-.167,20.848,2,6.5,8.673,14.176,16.012,14.511a10.373,10.373,0,0,0,1.663,1.144L33.534,86.7C28.023,81.8,25.479,73.4,24.83,66.258Zm39.7-25.35,0,0a16.4,16.4,0,0,0,2.168,3.753c-2.7-1.168-6.426-6.044-7.311-7.239A18.3,18.3,0,0,0,61.1,40.406a14.891,14.891,0,0,0,10.007,6.088A12.628,12.628,0,0,1,64.527,40.908Zm-15.6,46.616.084-.083-.081.032Z" fill="url(#linear-gradient-22)"/>
            <path id="Path_205" data-name="Path 205" d="M21.883,43.519c-10.451,30.023,4.56,38.029,4.56,38.029C13.655,68.426,21.883,43.519,21.883,43.519Zm23.351,45.7-.046,0ZM25.441,62.089s0,28.53,19.748,27.133C44.229,89.272,28.352,89.69,25.441,62.089Zm56.6-1.113s.11,17.791-6.227,25.353C75.813,86.328,83.928,79.546,82.039,60.976Z" fill="url(#linear-gradient-23)"/>
            <path id="Path_206" data-name="Path 206" d="M83.354,65.312c-.051-2.2-.467-4.364-.683-6.551-.314-3.2-.514-6.414-.654-9.627a54.49,54.49,0,0,0-1.374-10.81,39.081,39.081,0,0,0-4.477-10.739,31.8,31.8,0,0,0-7.819-9.055,29.407,29.407,0,0,0-11.717-5.4,29.037,29.037,0,0,0-13.307.585,35.237,35.237,0,0,0-7.043,2.566c-.118.06-.234.257-.322.356q-.292.334-.581.672c-.414.481-.821.968-1.226,1.458q-1.108,1.343-2.166,2.727-2.116,2.763-4,5.695a71.8,71.8,0,0,0-9.938,24.525,72.655,72.655,0,0,0-1.192,7.271,41.76,41.76,0,0,0-.09,7.575,27.117,27.117,0,0,0,1.4,6.886,22.61,22.61,0,0,0,2.672,5.108c2.955,4.305,7.61,8.28,13.037,8.6a12.724,12.724,0,0,0,3.958,2.215c3,1.08,6.79,1.442,9.59-.354a6.2,6.2,0,0,0,1.544-1.475.038.038,0,0,0-.017-.055.578.578,0,0,1,.073-.032c.02-.011,0-.044-.015-.036a10.941,10.941,0,0,1-5.076.821,9.886,9.886,0,0,1-4.407-1.576,14.312,14.312,0,0,1-2.192-1.729A30.583,30.583,0,0,1,34.1,73.887a53.423,53.423,0,0,1-.446-7.792,24.857,24.857,0,0,1,1.706-7.8,56,56,0,0,1,2.179-5.276,31.586,31.586,0,0,1,2.075-3.83c.736-1.126,1.635-2.156,2.42-3.25q1.844-2.565,3.455-5.289c1.276-2.153,2.337-4.392,3.419-6.644a19.667,19.667,0,0,1,3.406-5.026,12.318,12.318,0,0,1,2.477-2.06c.086-.053.173-.1.262-.151.126-.068.038-.031.1.007a2.94,2.94,0,0,1,1.016,1.3A29.227,29.227,0,0,1,57.64,32.8a28.253,28.253,0,0,0,2.272,5.866A15.488,15.488,0,0,0,66.9,45.334a12.714,12.714,0,0,0,4.214,1.255c.116.01.12-.151.027-.187a12.953,12.953,0,0,1-5.282-3.738,18.961,18.961,0,0,0,3.746,2.7,28.372,28.372,0,0,0,4.067,1.977c.109.042.178-.13.078-.184a9.642,9.642,0,0,1-2.5-2.276c.421.381.852.75,1.282,1.111q.725.611,1.476,1.188l.26.2c0,.1,0,.194,0,.291q-.012,1.209-.076,2.419c-.051.92-.214,1.835-.233,2.755a22.179,22.179,0,0,0,.586,4.8c.487,2.384,1.142,4.762,1.432,7.181a49.422,49.422,0,0,1-.117,10.948,44.7,44.7,0,0,1-1.97,9.911,8.354,8.354,0,0,1-1.81,3.2A11.036,11.036,0,0,1,67.6,91.527a13.76,13.76,0,0,1-2.569.632.118.118,0,0,0,0,.235,14.774,14.774,0,0,0,7.985-1.6,15.321,15.321,0,0,0,5.34-5.023c2.825-4.191,4.1-9.343,4.69-14.3A44.229,44.229,0,0,0,83.354,65.312ZM81.306,78.735c-1.467,4.835-4.137,9.716-8.819,12.063a14.076,14.076,0,0,1-6.311,1.4,12.951,12.951,0,0,0,5.418-2.561c2.134-1.763,2.816-4.54,3.4-7.126a60.878,60.878,0,0,0,1.377-10.856,36.765,36.765,0,0,0-.611-9.279A75.122,75.122,0,0,1,74.245,54.5a41.725,41.725,0,0,1,.2-5.652c.017-.506.027-1.013.027-1.519,0-.177-.56-.478-.668-.564A29.257,29.257,0,0,1,69.735,43.1c-.266-.329-.528-.659-.785-.994-.08-.1-.253-.006-.176.1.208.295.437.578.672.853q.557.69,1.136,1.363c.525.606,1.064,1.2,1.638,1.761.216.211.438.425.676.622a30.733,30.733,0,0,1-3.024-1.52c-2.1-1.191-4.383-2.721-5.512-4.931-.059-.116-.218-.014-.17.1a9.765,9.765,0,0,0,1.556,2.376,12.908,12.908,0,0,0,4.684,3.48,14.281,14.281,0,0,1-5.2-2.113c-3.817-2.427-5.908-6.427-7.184-10.645-.5-1.649-.851-3.352-1.464-4.964a5.413,5.413,0,0,0-.8-1.487c-.118-.146-.526-.632-.742-.522a8.945,8.945,0,0,0-1.659,1.159,16.9,16.9,0,0,0-3.14,3.583,67.334,67.334,0,0,0-3.33,6.44,66.858,66.858,0,0,1-3.557,5.976q-1.458,2.2-3.078,4.285a20.733,20.733,0,0,0-1.91,2.984,50.052,50.052,0,0,0-4.05,10.05,23.759,23.759,0,0,0-.672,3.1c.121-3.536-.052-7.1-.176-10.63-.067-1.927-.112-3.856,0-5.783a27.9,27.9,0,0,1,.99-5.907.032.032,0,0,0-.061-.017c-1.194,3.671-1.184,7.583-1.059,11.4.066,2.013.13,4.022.159,6.037.026,1.854-.008,3.717.07,5.571-.024.257-.045.514-.055.772-.022.549-.021,1.1-.015,1.647a54.193,54.193,0,0,0,.674,8.085,29.13,29.13,0,0,0,3,9.449,22.741,22.741,0,0,1-4.1-5.713,29.206,29.206,0,0,1-2.728-7.468c0-.006-.009,0-.008,0a30.592,30.592,0,0,0,3.424,8.965,17.047,17.047,0,0,0,6.608,6.88A9.667,9.667,0,0,0,44.4,88.515a9.912,9.912,0,0,0,4.477-1c-2.229,2.761-6.321,2.815-9.482,2.044a14.065,14.065,0,0,1-4.574-1.992,17.434,17.434,0,0,1-4.1-4.152,31.15,31.15,0,0,1-4.952-11.535,44.841,44.841,0,0,1-.954-6.284,37.591,37.591,0,0,1,.454-8.354c.023-.164.048-.329.072-.492,0-.018-.024-.027-.027-.009a39.818,39.818,0,0,0-.642,8.036,39.73,39.73,0,0,0,.805,6.279A33.646,33.646,0,0,0,29.935,82.6a20.527,20.527,0,0,0,3.787,4.421c-4.039-.312-7.592-2.72-10.314-5.594a23.052,23.052,0,0,1-5.837-10.889,40.392,40.392,0,0,1,.006-15.271,79.27,79.27,0,0,1,3.4-13.31A77.055,77.055,0,0,1,34.79,18.377q.565-.678,1.146-1.346c.156-.182.313-.466.532-.575.28-.139.565-.268.851-.4a39.537,39.537,0,0,1,4.207-1.576,30.641,30.641,0,0,1,13.516-1.391A28.79,28.79,0,0,1,67.168,17.97a27.773,27.773,0,0,1,4.918,4.338,35.7,35.7,0,0,1,3.517,4.82A39.132,39.132,0,0,1,80.286,37.9,51.953,51.953,0,0,1,81.77,49.045c.138,3.163.337,6.325.637,9.478.214,2.231.641,4.443.7,6.687A43.022,43.022,0,0,1,81.306,78.735ZM72.805,30.3a18.1,18.1,0,0,0-2.568-5.653,17.111,17.111,0,0,0-6.21-5.59s-.006,0,0,0a18.314,18.314,0,0,1,8.185,9.833,24.918,24.918,0,0,1,1.117,5.53c.229,2.04.367,4.089.518,6.136a62.458,62.458,0,0,0,.667,6.763c.019.1.169.057.156-.042-.534-3.876-.666-7.8-1.041-11.689A35.285,35.285,0,0,0,72.805,30.3Z" fill="url(#linear-gradient-24)"/>
          </g>
          <g id="Group_54" data-name="Group 54">
            <path id="Path_207" data-name="Path 207" d="M48.264,55a11.733,11.733,0,0,1-9.006-1.167s-.583-.583.333-1.417,6.589-4.754,10.341.5Z" fill="#010101"/>
            <g id="Group_53" data-name="Group 53">
              <path id="Path_208" data-name="Path 208" d="M40.258,53.332c2,1.75,6.421,2.251,9.09,1.251l.917-.167.583-.166c-1.25-2.086-3.168-3.669-5.67-3.42-2.335.25-3,.751-4.92,2.334v.168Z" fill="#fff"/>
              <g id="Group_52" data-name="Group 52">
                <path id="Path_209" data-name="Path 209" d="M47.273,52.586a2.479,2.479,0,0,0-.667-1.694,5,5,0,0,0-1.428-.062,7.031,7.031,0,0,0-2.649.686,2.458,2.458,0,0,0-.245,1.07,2.492,2.492,0,0,0,1.474,2.273,12.257,12.257,0,0,0,1.375.19A2.489,2.489,0,0,0,47.273,52.586Z" fill="url(#linear-gradient-25)"/>
                <path id="Path_210" data-name="Path 210" d="M44.779,54.791A2.2,2.2,0,0,0,46.1,50.823a5.209,5.209,0,0,0-.925.007,8.173,8.173,0,0,0-2.2.478,2.2,2.2,0,0,0,1.8,3.483Z" fill="url(#linear-gradient-26)"/>
                <path id="Path_211" data-name="Path 211" d="M46.082,52.586a1.3,1.3,0,1,1-1.3-1.3A1.3,1.3,0,0,1,46.082,52.586Z" fill="#010101"/>
                <path id="Path_212" data-name="Path 212" d="M45.7,52.586a.92.92,0,1,1-.919-.922A.919.919,0,0,1,45.7,52.586Z" fill="url(#linear-gradient-27)"/>
                <circle id="Ellipse_11" data-name="Ellipse 11" cx="0.533" cy="0.533" r="0.533" transform="translate(44.246 50.971)" fill="#fff"/>
                <circle id="Ellipse_12" data-name="Ellipse 12" cx="0.257" cy="0.257" r="0.257" transform="translate(44.522 53.6)" fill="#fff"/>
              </g>
            </g>
            <path id="Path_213" data-name="Path 213" d="M40.271,53.179a12.922,12.922,0,0,1,2.377-1.623,7.388,7.388,0,0,1,2.906-.649,5.12,5.12,0,0,1,3.038.914,8.777,8.777,0,0,1,2.236,2.442.024.024,0,0,0,.041-.025A6.28,6.28,0,0,0,45.8,50.706a7.172,7.172,0,0,0-3,.574,11.142,11.142,0,0,0-2.562,1.872c-.018.016.009.042.028.027Z" fill="#010101"/>
            <path id="Path_214" data-name="Path 214" d="M40.238,53.353a8.24,8.24,0,0,0,4.306,1.668,9.683,9.683,0,0,0,4.812-.411c.032-.012.02-.064-.016-.054a10.993,10.993,0,0,1-4.669.416,8.232,8.232,0,0,1-4.394-1.659c-.027-.022-.066.016-.039.04Z" fill="#010101"/>
          </g>
          <g id="Group_57" data-name="Group 57">
            <path id="Path_215" data-name="Path 215" d="M65.274,55a7.7,7.7,0,0,0,7.193-1.167s.467-.583-.266-1.417-5.263-4.754-8.259.5Z" fill="#010101"/>
            <g id="Group_56" data-name="Group 56">
              <path id="Path_216" data-name="Path 216" d="M71.668,53.332c-1.6,1.75-5.126,2.251-7.26,1.251l-.731-.167-.467-.166c1-2.086,2.532-3.669,4.529-3.42,1.864.25,2.4.751,3.929,2.334Z" fill="#fff"/>
              <g id="Group_55" data-name="Group 55">
                <path id="Path_217" data-name="Path 217" d="M66.873,55.078A2.413,2.413,0,0,0,69.2,52.586a2.6,2.6,0,0,0-.526-1.58,7.727,7.727,0,0,0-.931-.176,3.623,3.623,0,0,0-3.152,1.32,2.97,2.97,0,0,0-.036.436A2.411,2.411,0,0,0,66.873,55.078Z" fill="url(#linear-gradient-28)"/>
                <path id="Path_218" data-name="Path 218" d="M66.873,54.791a2.135,2.135,0,0,0,2.056-2.205A2.271,2.271,0,0,0,68.2,50.9c-.146-.027-.3-.051-.465-.074a3.439,3.439,0,0,0-2.779.955,2.313,2.313,0,0,0-.142.8A2.134,2.134,0,0,0,66.873,54.791Z" fill="url(#linear-gradient-29)"/>
                <path id="Path_219" data-name="Path 219" d="M68.085,52.586a1.216,1.216,0,1,1-1.212-1.3A1.259,1.259,0,0,1,68.085,52.586Z" fill="#010101"/>
                <path id="Path_220" data-name="Path 220" d="M67.73,52.586a.859.859,0,1,1-.857-.922A.89.89,0,0,1,67.73,52.586Z" fill="url(#linear-gradient-30)"/>
                <ellipse id="Ellipse_13" data-name="Ellipse 13" cx="0.497" cy="0.533" rx="0.497" ry="0.533" transform="translate(66.377 50.971)" fill="#fff"/>
                <ellipse id="Ellipse_14" data-name="Ellipse 14" cx="0.239" cy="0.257" rx="0.239" ry="0.257" transform="translate(66.634 53.6)" fill="#fff"/>
              </g>
            </g>
            <path id="Path_221" data-name="Path 221" d="M71.659,53.179a10.557,10.557,0,0,0-1.9-1.623,4.921,4.921,0,0,0-2.319-.649,3.534,3.534,0,0,0-2.427.914,8.348,8.348,0,0,0-1.786,2.442c-.015.023-.046,0-.033-.025.791-1.882,2.3-3.456,4.049-3.532a4.731,4.731,0,0,1,2.392.574,9.31,9.31,0,0,1,2.047,1.872c.013.016-.008.042-.023.027Z" fill="#010101"/>
            <path id="Path_222" data-name="Path 222" d="M71.685,53.353a5.89,5.89,0,0,1-3.438,1.668A6.271,6.271,0,0,1,64.4,54.61c-.027-.012-.016-.064.013-.054a7.1,7.1,0,0,0,3.729.416,5.856,5.856,0,0,0,3.509-1.659c.022-.022.052.016.031.04Z" fill="#010101"/>
          </g>
        </g>
      </g>
    </g>
  </g>
</svg>
