<svg xmlns="http://www.w3.org/2000/svg" xmlns:xlink="http://www.w3.org/1999/xlink" width="96.666" height="96.666" viewBox="0 0 96.666 96.666">
  <defs>
    <clipPath id="clip-path">
      <path id="Path_376" data-name="Path 376" d="M98.48,50.679A48.333,48.333,0,1,1,50.147,2.346,48.332,48.332,0,0,1,98.48,50.679Z" fill="#65b031"/>
    </clipPath>
  </defs>
  <g id="gir-new-1" transform="translate(-1.814 -2.346)">
    <path id="Path_361" data-name="Path 361" d="M98.48,50.679A48.333,48.333,0,1,1,50.147,2.346,48.332,48.332,0,0,1,98.48,50.679Z" fill="#efefef"/>
    <g id="Group_118" data-name="Group 118" clip-path="url(#clip-path)">
      <g id="Group_117" data-name="Group 117">
        <g id="Group_116" data-name="Group 116">
          <g id="Group_98" data-name="Group 98">
            <path id="Path_362" data-name="Path 362" d="M56.033,14.9s7.289-2.694,13.879.673C76.928,19.154,80.489,22.74,82.1,52.859s1.434,45.181,1.614,47.512-57.372,1.613-57.372,1.613V27.042Z" fill="#090f28"/>
          </g>
          <g id="Group_99" data-name="Group 99">
            <path id="Path_363" data-name="Path 363" d="M64.892,91.766l-21.635.65L44,73.837H63.816Z" fill="#f8ae77"/>
          </g>
          <g id="Group_100" data-name="Group 100">
            <path id="Path_364" data-name="Path 364" d="M41.384,89.022H69a3.819,3.819,0,0,1,3.684,3.168l1.568,7.986-38,1.472,1.412-9.28A3.831,3.831,0,0,1,41.384,89.022Z" fill="#fdfeff"/>
          </g>
          <g id="Group_101" data-name="Group 101">
            <path id="Path_365" data-name="Path 365" d="M64.22,80.559c-1.23,2.606-3.481,5.195-6.69,5.554-5.509.618-10.884-5.494-13.535-8.878-.531-.676-.787-1.241-1.081-1.624a12.715,12.715,0,0,0,2.437,1.212,27.507,27.507,0,0,0,9.7,1.619,15.992,15.992,0,0,0,7.256-1.619l1.674-.027Z" fill="#e7a071"/>
          </g>
          <g id="Group_103" data-name="Group 103">
            <g id="Group_102" data-name="Group 102">
              <path id="Path_366" data-name="Path 366" d="M73.513,52.014C73.98,66.95,65.08,79.35,53.633,79.708S32.525,68.251,32.057,53.315s8.431-27.334,19.878-27.693S73.043,37.079,73.513,52.014Z" fill="#f8ae77"/>
            </g>
          </g>
          <g id="Group_104" data-name="Group 104">
            <path id="Path_367" data-name="Path 367" d="M78.234,53.647c0,3.093-2.682,6.079-4.894,6.079s-4.006-2.506-4.006-5.6,2.939-5.6,5.15-5.6S78.234,50.556,78.234,53.647Z" fill="#f8ae77"/>
          </g>
          <g id="Group_106" data-name="Group 106">
            <g id="Group_105" data-name="Group 105">
              <path id="Path_368" data-name="Path 368" d="M65.878,43.985a1.625,1.625,0,0,1-.5-.08c-4.448-1.46-7.378-.134-7.5-.077a1.614,1.614,0,0,1-1.4-2.908c.166-.081,4.15-1.965,9.9-.083a1.614,1.614,0,0,1-.5,3.148Z" fill="#040505"/>
            </g>
          </g>
          <g id="Group_108" data-name="Group 108">
            <g id="Group_107" data-name="Group 107">
              <path id="Path_369" data-name="Path 369" d="M34.96,46.541a1.613,1.613,0,0,1-.926-2.935c.152-.1,3.8-2.578,9.776-1.586a1.614,1.614,0,1,1-.526,3.184c-4.615-.76-7.312.99-7.425,1.064A1.625,1.625,0,0,1,34.96,46.541Z" fill="#040505"/>
            </g>
          </g>
          <g id="Group_110" data-name="Group 110">
            <g id="Group_109" data-name="Group 109">
              <path id="Path_370" data-name="Path 370" d="M52.7,59.27H51.086A.27.27,0,0,1,50.817,59V52.949a.269.269,0,0,1,.538,0v5.783H52.7a.269.269,0,0,1,0,.538Z" fill="#040505"/>
            </g>
          </g>
          <g id="Group_111" data-name="Group 111">
            <path id="Path_371" data-name="Path 371" d="M42.481,51.639a2.062,2.062,0,0,1-1.793,2.252,2.311,2.311,0,0,1,0-4.5A2.063,2.063,0,0,1,42.481,51.639Z" fill="#040505"/>
          </g>
          <g id="Group_112" data-name="Group 112">
            <path id="Path_372" data-name="Path 372" d="M63.322,49.386a1.84,1.84,0,1,1-1.792-2.252A2.063,2.063,0,0,1,63.322,49.386Z" fill="#040505"/>
          </g>
          <g id="Group_113" data-name="Group 113">
            <path id="Path_373" data-name="Path 373" d="M46.255,66.755c.6,2.766,3.86,4.564,7.464,4.048,3.131-.449,5.518-2.5,5.965-4.884Z" fill="#fdfeff"/>
          </g>
          <g id="Group_114" data-name="Group 114">
            <path id="Path_374" data-name="Path 374" d="M55.482,14.309c5.627,11.284-7.957,15.336-13.1,21.443-5.621,6.675-9.506,19.853-9.2,28.628.826,23.941,8.921,43.132-6.866,65.044,3.272-13.307-1.7-23.476-5.853-35.552-4.563-13.283-4.485-26.9-2.911-40.694,1.186-10.4,1.573-27.213,9.392-35.064C31.432,13.607,51.9,7.118,55.482,14.309Z" fill="#090f28"/>
          </g>
          <g id="Group_115" data-name="Group 115">
            <path id="Path_375" data-name="Path 375" d="M54.182,25.709a19.827,19.827,0,0,0,8.152,7.146c7.982,3.852,9.691,16.531,9.691,16.531l3.24-1.765L69,24.028Z" fill="#090f28"/>
          </g>
        </g>
      </g>
    </g>
  </g>
</svg>
