<svg xmlns="http://www.w3.org/2000/svg" xmlns:xlink="http://www.w3.org/1999/xlink" width="100" height="100.042" viewBox="0 0 100 100.042">
  <defs>
    <linearGradient id="linear-gradient" x1="0.344" y1="0.331" x2="0.21" y2="0.036" gradientUnits="objectBoundingBox">
      <stop offset="0" stop-color="#731513"/>
      <stop offset="1" stop-color="#b33325"/>
    </linearGradient>
    <linearGradient id="linear-gradient-2" x1="0.356" y1="0.304" x2="0.247" y2="0.027" gradientUnits="objectBoundingBox">
      <stop offset="0" stop-color="#861f1a"/>
      <stop offset="1" stop-color="#c5442e"/>
    </linearGradient>
    <linearGradient id="linear-gradient-3" x1="0.346" y1="0.334" x2="0.212" y2="0.041" gradientUnits="objectBoundingBox">
      <stop offset="0" stop-color="#5c0f0b"/>
      <stop offset="1" stop-color="#9c2820"/>
    </linearGradient>
    <linearGradient id="linear-gradient-4" x1="0.327" y1="0.335" x2="0.189" y2="0.034" gradientUnits="objectBoundingBox">
      <stop offset="0" stop-color="#8c191b"/>
      <stop offset="1" stop-color="#cb3b27"/>
    </linearGradient>
    <linearGradient id="linear-gradient-5" x1="0.3" y1="0.333" x2="0.17" y2="0.045" gradientUnits="objectBoundingBox">
      <stop offset="0" stop-color="#a12522"/>
      <stop offset="1" stop-color="#df4f34"/>
    </linearGradient>
    <linearGradient id="linear-gradient-6" x1="0.5" y1="0.771" x2="0.5" y2="0.451" gradientUnits="objectBoundingBox">
      <stop offset="0" stop-color="#cc704f"/>
      <stop offset="1" stop-color="#b85735"/>
    </linearGradient>
    <linearGradient id="linear-gradient-7" x1="0.5" y1="-0.467" x2="0.5" y2="0.88" gradientUnits="objectBoundingBox">
      <stop offset="0" stop-color="#f8a375"/>
      <stop offset="1" stop-color="#cc704f"/>
    </linearGradient>
    <radialGradient id="radial-gradient" cx="0.5" cy="0.5" r="0.557" gradientTransform="translate(-0.563 -5.514) scale(0.897 0.897)" xlink:href="#linear-gradient-7"/>
    <radialGradient id="radial-gradient-2" cx="1.008" cy="0.488" r="0.568" gradientTransform="matrix(1.211, -0.836, 1.299, 0.387, 6.129, 98.599)" gradientUnits="objectBoundingBox">
      <stop offset="0" stop-color="#d48061"/>
      <stop offset="1" stop-color="#cc704f"/>
    </radialGradient>
    <radialGradient id="radial-gradient-3" cx="0.401" cy="0.5" r="0.517" gradientTransform="matrix(-0.549, -0.935, 1.02, -0.25, 194.739, 122.058)" xlink:href="#radial-gradient-2"/>
    <linearGradient id="linear-gradient-8" x1="0.5" y1="1.087" x2="0.5" y2="0.681" xlink:href="#linear-gradient-6"/>
    <linearGradient id="linear-gradient-9" x1="0.5" y1="0.652" x2="0.5" y2="0.128" xlink:href="#linear-gradient-6"/>
    <linearGradient id="linear-gradient-10" x1="0.5" y1="0.653" x2="0.5" y2="0.125" xlink:href="#linear-gradient-6"/>
    <linearGradient id="linear-gradient-11" x1="0.5" y1="1.451" x2="0.5" y2="0.547" xlink:href="#linear-gradient-6"/>
    <linearGradient id="linear-gradient-12" x1="0.621" y1="1.35" x2="0.45" y2="0.234" xlink:href="#linear-gradient-7"/>
    <linearGradient id="linear-gradient-13" x1="0.073" y1="0.295" x2="0.67" y2="0.62" xlink:href="#linear-gradient-7"/>
    <linearGradient id="linear-gradient-14" x1="0.933" y1="0.417" x2="0.309" y2="0.53" xlink:href="#linear-gradient-7"/>
    <linearGradient id="linear-gradient-15" x1="0.5" y1="0.522" x2="0.5" y2="-0.101" gradientUnits="objectBoundingBox">
      <stop offset="0" stop-color="#a04525"/>
      <stop offset="1" stop-color="#cc704f"/>
    </linearGradient>
    <radialGradient id="radial-gradient-4" cx="0.53" cy="0.771" r="2.278" gradientTransform="matrix(0.238, 0.017, -0.004, 1, -17.512, 0.339)" gradientUnits="objectBoundingBox">
      <stop offset="0" stop-color="#c8625d"/>
      <stop offset="1" stop-color="#a93f29"/>
    </radialGradient>
    <linearGradient id="linear-gradient-16" x1="0.5" y1="-0.009" x2="0.5" y2="0.509" gradientUnits="objectBoundingBox">
      <stop offset="0" stop-color="#c8625d"/>
      <stop offset="1" stop-color="#973323"/>
    </linearGradient>
    <linearGradient id="linear-gradient-17" x1="0.443" y1="-0.726" x2="0.436" y2="-0.926" gradientUnits="objectBoundingBox">
      <stop offset="0" stop-color="#62130e"/>
      <stop offset="1" stop-color="#9d2821"/>
    </linearGradient>
    <linearGradient id="linear-gradient-18" x1="218.588" y1="-0.735" x2="218.579" y2="-0.938" xlink:href="#linear-gradient-17"/>
    <linearGradient id="linear-gradient-19" x1="0.307" y1="0.298" x2="0.069" y2="0.063" xlink:href="#linear-gradient-4"/>
    <linearGradient id="linear-gradient-20" x1="0.282" y1="0.302" x2="-0.047" y2="0.064" xlink:href="#linear-gradient-5"/>
    <linearGradient id="linear-gradient-21" x1="0.244" y1="0.286" x2="-0.098" y2="0.042" gradientUnits="objectBoundingBox">
      <stop offset="0" stop-color="#b13831"/>
      <stop offset="1" stop-color="#ee6a51"/>
    </linearGradient>
    <linearGradient id="linear-gradient-22" x1="0.304" y1="0.324" x2="0.002" y2="0.095" xlink:href="#linear-gradient-17"/>
    <linearGradient id="linear-gradient-23" x1="0.5" y1="0.882" x2="0.5" y2="0.116" gradientUnits="objectBoundingBox">
      <stop offset="0" stop-color="#381710"/>
      <stop offset="1" stop-color="#010101"/>
    </linearGradient>
    <linearGradient id="linear-gradient-24" x1="0.5" y1="0.935" x2="0.5" y2="0.122" gradientUnits="objectBoundingBox">
      <stop offset="0.006" stop-color="#652513"/>
      <stop offset="1" stop-color="#230d0d"/>
    </linearGradient>
    <linearGradient id="linear-gradient-25" x1="0.5" y1="0.584" x2="0.5" y2="1.088" gradientUnits="objectBoundingBox">
      <stop offset="0" stop-color="#010101"/>
      <stop offset="1" stop-color="#77736e"/>
    </linearGradient>
    <linearGradient id="linear-gradient-26" x1="0.5" y1="0.882" x2="0.5" y2="0.116" xlink:href="#linear-gradient-23"/>
    <linearGradient id="linear-gradient-27" x1="0.5" y1="0.934" x2="0.5" y2="0.116" xlink:href="#linear-gradient-24"/>
    <linearGradient id="linear-gradient-28" x1="0.5" y1="0.584" x2="0.5" y2="1.088" xlink:href="#linear-gradient-25"/>
  </defs>
  <g id="girl_1" data-name="girl 1" transform="translate(-270 -234)">
    <path id="Path_49" data-name="Path 49" d="M50,0A50,50,0,1,1,0,50,50,50,0,0,1,50,0Z" transform="translate(270 234)" fill="#efefef"/>
    <path id="Intersection_1" data-name="Intersection 1" d="M-327.27-81.389-339-96.584l-2.3,11.29a50.112,50.112,0,0,1-15.776-11.089c1.457-1.066,4.009-3.27,2.8-4.882-1.654-2.2-3.444-4.823-3.444-4.823s.964-2.065,2.2-4.546a5.919,5.919,0,0,0-2.2-7.167,10.354,10.354,0,0,1,2.756-4.96c2.066-1.791,2.2-4.547.413-4.961s-3.582-1.653-1.1-4.548,3.582-4.823,2.618-6.751-.689-6.476.275-9.1a6.111,6.111,0,0,1,2.619.552c.826.551,2.618-1.516,1.929-3.582a14.531,14.531,0,0,1-.275-5.236,17.209,17.209,0,0,1,4.96-2.894c2.757-.964,4.685-.688,6.614-3.169a39.7,39.7,0,0,1,5.65-5.374,28.652,28.652,0,0,1,5.374,1.791c1.791.964,3.031-.275,3.17-1.93a12.351,12.351,0,0,1,6.475,3.858,17.837,17.837,0,0,1,8.131-.552s-.965,3.169.275,3.307a9.024,9.024,0,0,0,1.428-.015,10.2,10.2,0,0,1,4.082.428,12.865,12.865,0,0,1,4.409,2.757s-1.239,1.1-.412,1.791,5.236,5.373,6.751,5.511c0,0,1.38,4,.689,5.788s-3.032,3.858-2.343,5.787,5.236,4,5.236,5.374c0,0-1.378,2.48-2.2,4.134s-.415,3.857.688,3.445c0,0,2.067,2.618,1.241,5.1s-3.721,4.135-3.859,6.063,2.479,3.032,2.618,4.271-1.929,2.619-2.893,4.548-.414,4.547,1.515,5.373c0,0-.138,3.032-2.343,4.409a49.138,49.138,0,0,1,1.574,6.077A49.771,49.771,0,0,1-321-81,50.474,50.474,0,0,1-327.27-81.389Z" transform="translate(641 415)" fill="url(#linear-gradient)"/>
    <g id="Group_16" data-name="Group 16" transform="translate(283 247.042)">
      <g id="Group_1" data-name="Group 1">
        <path id="Path_3" data-name="Path 3" d="M25.129,17.071c.161-.972.906-1.533-.294-2.183-.825-.447-2.117.336-2.994-.009a2.529,2.529,0,0,1,.44-1.17c-.193.058-.391.123-.594.193a17.171,17.171,0,0,0-4.96,2.894s-.015.119-.035.326c1.246.145,3.305-.966,4.449-.89,3.749.248,3.887,2.148,2.9,4.972,1.643-.753,3.079-1.688,4.91-1.923C27.249,18.592,24.76,19.29,25.129,17.071Zm46.3,34.174-1.515,4c.731-1.459,3.1-.955,4.866-.1a10.206,10.206,0,0,0,2.134-3.134A3.922,3.922,0,0,1,71.43,51.245ZM70.875,23.27a7.939,7.939,0,0,1,3.478,1.859,20.534,20.534,0,0,0-.718-2.822,4.283,4.283,0,0,1-1.728-.935,2.083,2.083,0,0,1-.473.428c-1.271.821-1.8-.417-2.905-.193-1.176.237-.644,1.1-2.087.713a11.635,11.635,0,0,1-2.864-1.8l2.755,5.1c.067.153.176.183.133.371A3.967,3.967,0,0,1,70.875,23.27ZM74.43,41.754a4.752,4.752,0,0,1,1.068.688c.79-1.513,1.719-3.186,1.719-3.186a1.756,1.756,0,0,0-.651-1.08,2.23,2.23,0,0,1-1.288.787c-1.547.224-.913-1.023-1.948-1.453-1.094-.454-1.5,1.224-2.412,1.348-1.558.21-2.011-2.519-2.52-3.459l-.553,8.681C69.719,42.622,71.854,40.552,74.43,41.754ZM8.9,44.389a9.422,9.422,0,0,1,5.49-2.1c1.979-.078,4.094.316,5.377,1.887-.167-1.81-.158-3.629-.419-5.426-1.033,1.58-3.119,2.968-4.964,2.474-.86-.23-.687-.668-1.684-.423-.734.18-1,.863-1.877.78a5.32,5.32,0,0,1,.806-3.289l-.065,0a23.052,23.052,0,0,1-2,2.619c-1.475,1.72-1.44,2.856-.793,3.581ZM62.47,15.995a2.487,2.487,0,0,1,2.03-1.262,7.439,7.439,0,0,0-3.263-.279c-.964.038-3.449-1.366-3.448.138l3.444,6.062C61.668,20.764,61.943,16.807,62.47,15.995ZM39.414,8.935c-2.214-.007-3.834-1.6-5.715-2.18-.307.947-1.356,1.6-1.8,2.406.66-.218,1.693-.48,2.2.191.635.847-.4,1.321-.538,2.183a9.327,9.327,0,0,1,2.74.851l3.445.413C39.532,11.519,37.892,10.114,39.414,8.935ZM25.869,65.223l.227.213A.511.511,0,0,0,25.869,65.223ZM60.841,62.8c.022-.421-.078-.881-.015-1.308a56.07,56.07,0,0,0-3.468,4.588c.935-.873,2.093-.862,3.216-1.292,1.735-.663,1.557-1.173,2.732.33a6.577,6.577,0,0,1,.682-3.123l.551-.276C63.356,61.356,62.085,63.04,60.841,62.8ZM25.27,35.708c.482.308,1.018,1.114,1.515.946.542-.184.815-1.733.827-2.22V31.54c-.821.923-1.777,2.436-3.031,2.885-1.2.428-2.414-.183-3.534-.558.229.79.414,1.688.671,2.481C23.163,35.655,23.8,34.765,25.27,35.708ZM27.615,47.76c-.32-.058-1.223.665-1.656.735-.452.073-.952-.122-1.378-.083-2.579.24-3.888,1.4-6.042-.847a9.007,9.007,0,0,0,.5,3.938,5.5,5.5,0,0,1-3.791,2.468c-2.054.447-1.548-.527-2.9-1.324-.99-.586-1.615.728-2.382.41-.526-.217-.4-1.321-.154-2.222a10.863,10.863,0,0,0-2.32,4.542,4.462,4.462,0,0,1,1.5,1.389c1.1-.511,1.848-1.475,3.191-1.705,2.115-.363,5.255-.285,6.992,1.138a18.071,18.071,0,0,0-.017-4.595c1.424-.914,2.2-.6,3.628-.734.97-.093,2.663-1.154,2.894.786l1.929-.276C28.311,51.128,28.691,47.954,27.615,47.76ZM12.759,66.167c-.644-.491-.613-1.045-1.433-1.115-.635-.055-1.16.6-1.876.51A5.505,5.505,0,0,1,9.2,63.557c-.769,1.562-1.373,2.834-1.6,3.319a10.709,10.709,0,0,1,3.644.213,34.541,34.541,0,0,1,7.126,2.021c-.044-1.248-.4-2.554-.568-3.8C16.922,67.009,14.239,67.294,12.759,66.167Zm9.091-3.2a5.961,5.961,0,0,1,.141,3.005c.292-1.044,3.026-1.231,3.879-.753l-1.978-1.854A3.033,3.033,0,0,1,21.85,62.971ZM12.6,31.813c.625-.318,2.979-1.712,2.773-.012,2.281-2.213,4.513-.843,5.378,1.738a25.677,25.677,0,0,0,1.736-5.982,6.728,6.728,0,0,1-4.262,2.193c-1.613.073-1.68-.533-2.775-1.253-.941-.618-1.351.122-2.071-.226-.759-.366-.8-2.5-.927-3.209a17.334,17.334,0,0,0-.783,7.156A8.671,8.671,0,0,0,12.6,31.813Z" transform="translate(-7.219 -5.221)" fill="url(#linear-gradient-2)"/>
        <path id="Path_4" data-name="Path 4" d="M55.805,8.635l.837-.489a18.09,18.09,0,0,0-7.726.627l-.092-.1-.873,1.2a46.373,46.373,0,0,1,5.1-1.24ZM41.474,8.5a27.647,27.647,0,0,0,3.444.551S43.541,8.222,43.4,7.258a9.177,9.177,0,0,0-.623-2.268c-.219-.053-.342-.073-.342-.073C42.3,6.569,41.06,7.81,39.269,6.845A25.078,25.078,0,0,0,34.5,5.2l1.049.54S40.647,8.222,41.474,8.5Zm-23.7,15.294c.413-.964-.138-4.271-.138-4.271a14.866,14.866,0,0,1-.33-3.538c-.4.3-.635.506-.635.506a14.512,14.512,0,0,0,.276,5.235,3.007,3.007,0,0,1-1.438,3.648l.2.21S17.361,24.757,17.775,23.792ZM76.06,39.225a17.161,17.161,0,0,1-1.653,3.169c-1.653,2.894,0,3.583,0,3.583l.243-.122a3.96,3.96,0,0,1,.309-2.772c.826-1.653,2.2-4.134,2.2-4.134,0-.906-1.968-2.111-3.1-2.964ZM60.627,11.667c2.067.552,4.961,3.169,4.961,3.169l-.414,1.378a11.9,11.9,0,0,0,2.765,1.333c-.514-.5-.916-.893-1.112-1.057C66,15.8,67.24,14.7,67.24,14.7a12.858,12.858,0,0,0-4.409-2.756,8.992,8.992,0,0,0-2.561-.459C60.308,11.55,60.42,11.611,60.627,11.667ZM71.789,29.994a4.32,4.32,0,0,0,.276,4.134l.084-.11a2.361,2.361,0,0,1-.223-.442c-.689-1.928,1.653-4,2.343-5.787S73.58,22,73.58,22a7.848,7.848,0,0,1-2.948-1.936,32.01,32.01,0,0,1,2.259,3.59C73.442,24.895,72.891,27.926,71.789,29.994Zm.138,26.18c.138-.689-1.79-4.409-2.48-6.2-.445-1.158-2.271-1.567-3.656-1.638.538-2.753,1.45-7.319,1.45-7.319s.689-7.579.414-8.268-1.24-5.65-2.066-7.165-1.1-3.859-3.309-5.65.138-3.583-3.307-3.444c-.735.029-1.318.021-1.807,0A2.185,2.185,0,0,0,57.6,13.6c-2.343-4-8.819-1.928-8.819-1.928a16.317,16.317,0,0,0-7.3-1.378l.551,10.058s4.256-.552,6.51-.82a14.489,14.489,0,0,0-2.789,3.3A50.822,50.822,0,0,0,43.54,30.27c-.413,1.653.413,25.629.413,25.629s2.481,9.507,2.619,9.92,2.2,4.272,2.2,4.272l2.037.588a10.229,10.229,0,0,0,2.033,2.655l-2.8,3.043,6.035.6c2.942-.8,8.709-.854,12.415-.792a20.091,20.091,0,0,0,1.364-2.929c.413-.963-.276-4.271-.413-4.685a16.044,16.044,0,0,1-.827-2.756,37.954,37.954,0,0,1,1.653-4.409S71.789,56.863,71.926,56.174ZM65.864,66.646c.826.688.826,4.133-.275,5.1s-4.686-.964-4.686-.964a5.591,5.591,0,0,0-4.685-1.1l-.074.082a17.555,17.555,0,0,1-.184-3.89,10.754,10.754,0,0,0,2.739-3.63c1.292-2.492,3.758-6.405,5.329-9.173A31.241,31.241,0,0,1,66.69,55.21c.827.826,1.24,2.2-.826,5.787S65.036,65.956,65.864,66.646Zm9.63-20.077c0,.032.008.063.014.1.414,2.066.828,4.273-1.239,7.166-1.625,2.276-1.375,3.869-1.2,4.446a2.078,2.078,0,0,1-.044-.588c.138-1.928,3.031-3.583,3.859-6.063s-1.241-5.1-1.241-5.1A1.053,1.053,0,0,1,75.494,46.569Zm-.137,16.406a10.51,10.51,0,0,0-3.431,3.945c-1.24,2.756.276,4.272.827,5.1s-1.239,2.894-1.239,2.894L71.1,76.257c.527.019.831.033.831.033,2.205-1.378,2.343-4.409,2.343-4.409-1.928-.826-2.48-3.444-1.515-5.373C73.465,65.085,74.773,63.964,75.357,62.975Zm-36.5-52.824c-.827,0-2.48,1.515-3.858,1.239a6.005,6.005,0,0,0-4.409,1.24,11.438,11.438,0,0,1-4.961,3.583A26.1,26.1,0,0,0,19.7,19.659c-.689,4.685.689,6.614,1.1,7.991s-3.858,6.614-3.858,6.614c-.827,4.134.275,4.271.827,5.236s-1.929,4-1.929,4a10.088,10.088,0,0,0,0,6.063s2.067,2.479,1.378,4.271a5.987,5.987,0,0,1-2.894,2.756L15.517,57.6c-.73-.433-1.738-.88-1.738-.88l-.276.552s.276,5.235.551,6.752,2.205,3.719,1.1,4.684a28.43,28.43,0,0,0-2.26,2.4c-1.263-2-4.63-4.4-5.226-4.812-.147.31-.229.487-.229.487s1.791,2.619,3.444,4.823-3.72,5.511-3.72,5.511a56.089,56.089,0,0,0,8.213-.075A4.849,4.849,0,0,1,16.4,75.878c.964-.689,3.582-7.029,3.858-8.131.413,1.928-.827,4.272-2.067,5.925-1,1.331-1.282,1.948-1.211,3.073a37.385,37.385,0,0,1,6-.58c-.057-1.309-.069-4.712,1.134-6.9,0,0,.965-2.2-.276-3.72s-4.96-4.134-4.409-5.786,2.343-2.205,2.066-4-3.031-6.476-.964-7.992a32.361,32.361,0,0,0,4.548-4.547,56.379,56.379,0,0,1-2.48-6.2c-.965-3.032.964-5.65,1.378-6.615A22,22,0,0,0,24.8,27.1a36.4,36.4,0,0,1,1.791,5.375c.552,2.48-1.1,7.165-1.1,7.165l.276,4.409s1.653,2.894,1.241,3.859S22.873,52.454,22.6,58.929c0,0,2.755,4.961,2.755,6.89a54.237,54.237,0,0,1-1.1,7.028l.388,3.234.025.21,8.131-.637c.6-.319,1.133-.625,1.515-.879,1.653-1.1,3.72-9.232,3.582-11.988s0-21.91,0-21.91-1.929-4.822-3.169-7.027-4.547-10.059-4.547-11.3a3.883,3.883,0,0,0-.455-1.865,36.325,36.325,0,0,1,2.934-2.819c.827-.552,6.476-5.925,7.165-6.338S39.683,10.151,38.856,10.151ZM17.685,45.285a3.159,3.159,0,0,0,.09.83c.138.413.413,2.617.413,2.617-.551,0-.689-3.169-.689-3.169Zm.365,12.267c-.413.413-1.516.964-1.516,1.791a6.66,6.66,0,0,0,.239,1.391c-.194-.244-.528-.615-.909-1.024a9.126,9.126,0,0,0,.4-1.468,2.423,2.423,0,0,0,1.1-.413,9.494,9.494,0,0,0,1.565-1.352A9.841,9.841,0,0,1,18.05,57.551ZM20,53.47a6.172,6.172,0,0,1-.433-1.43,4.017,4.017,0,0,0-.138-.867c.056.123.1.229.138.317A7.494,7.494,0,0,1,20,53.47Zm1.5-22.649-.413.551.664-1.328Zm.965-7.3a5.174,5.174,0,0,1,.283-1.078c.03,1.193.13,4.11.13,4.11S22.459,23.93,22.459,23.517Zm.593-1.948c.058-.158.1-.257.1-.257l.225.11A2.02,2.02,0,0,0,23.052,21.569ZM10.609,45.15c1.088.252,1.463,1.365,1.128,2.6l.387.017a7.9,7.9,0,0,0-.276-2.894c-.413-.689-3.031-.965-2.756-2.067a26.67,26.67,0,0,1,1.321-3.3q-.416.525-.908,1.1C7.027,43.5,8.818,44.736,10.609,45.15ZM9.929,61.5l.405.184s.551-3.583.275-4.547a11.067,11.067,0,0,0-1.929-2.756,9.253,9.253,0,0,1-.125-2.173A11.811,11.811,0,0,0,7.44,55.071,6.011,6.011,0,0,1,9.929,61.5Zm5.641-30.13-2.342,2.343c-1.378-2.066-.689-8.681-.689-8.681l-.309.231c-.823,2.664-1.009,6.778-.105,8.587.761,1.52.236,3.041-1.234,5.034C12.512,37.488,15.57,31.371,15.57,31.371Z" transform="translate(-7.164 -4.914)" fill="url(#linear-gradient-3)"/>
        <path id="Path_5" data-name="Path 5" d="M34.386,12.668s-.689-.689-2.205,1.791-2.894,2.894-6.615,4A16.139,16.139,0,0,0,20.33,20.8s.689,4.823,2.067,6.476-.138,3.169-1.653,4.823-3.032,3.444-3.032,3.444c-.138,2.067,1.928,4.134,1.928,5.65s-3.169,3.445-3.169,3.445.276,4.271,2.067,6.751.276,3.308-.552,5.236S14.541,58,14.541,58s.276,5.925,1.378,7.716,2.067,2.48,2.205,4.134-2.619,2.481-2.619,2.481a14.186,14.186,0,0,0-2.343,3.307,12.594,12.594,0,0,1-2.233,2.87,29.881,29.881,0,0,0,6.229-.39,25.233,25.233,0,0,1,3.536-.521c.039-3.589,3.905-8.574,3.905-8.574.138-3.307-3.583-4-5.236-5.1s-.551-4.409-.551-4.409c4.823-.689,2.067-6.752.551-9.647s.827-3.444,3.583-5.1.827-3.72-1.24-6.063-.276-4,1.24-6.338a10.441,10.441,0,0,0,1.378-6.614C24.187,24.107,26.667,23,26.667,23l9.923-4.549s2.756-4.271,1.792-5.236S34.386,12.668,34.386,12.668Zm36.79,54.7c1.378-1.378,3.72-3.721,3.031-4.96s-1.653-3.858-1.239-5.512,1.1-4.409-.826-6.061-1.653-6.476-1.516-9.922-1.24-14.33-5.1-19.291S56.021,10.6,49.405,13.909s-4.684,11.437-4.684,11.437l7.716-3.858a9.379,9.379,0,0,0,2.344-2.343c1.378-1.792,4.409.688,6.751,2.343s5.512,12.538,5.236,19.429-2.066,7.716-1.24,11.162a20.041,20.041,0,0,0,3.445,3.858c1.653,1.241,1.516,4.134-1.1,5.786s-2.343,3.722-2.343,3.722,3.584,1.79,3.445,4.546.413,5.375-2.894,4.547-4.409-.551-4.409-.551l-.689,1.928s-3.444-.688-3.72-1.928a1.575,1.575,0,0,1,2.067-1.928c1.239.551.688,2.067.688,2.067H58.638s1.653.964,1.928.276c0,0,.138-2.205-.413-2.619s-3.169-1.378-3.719-.828a8.205,8.205,0,0,0-1.1,3.859,21.915,21.915,0,0,0,3.005,3.112c5.031-.778,13.768-.378,14.2-.358-.073-1.023-.377-4.609-1.084-5.785C70.625,70.4,69.8,68.75,71.176,67.371Z" transform="translate(-7.791 -6.191)" fill="url(#linear-gradient-4)"/>
        <path id="Path_6" data-name="Path 6" d="M20.57,55.389a1.912,1.912,0,0,0-.415-.408,17.58,17.58,0,0,0-.939,1.719,2.579,2.579,0,0,1-.143.279,5.276,5.276,0,0,1,3.171,1.434,3.328,3.328,0,0,0,.518-1.962,2.708,2.708,0,0,1-.539.074C21.083,56.557,21.128,56.064,20.57,55.389Zm50.3-13.276a2.447,2.447,0,0,1,.929.257c.018-.475.037-.938.054-1.378,0-.108.008-.223.008-.344-.49-.276-.591-.735-1.428-.486-.683.2-1.271,1.22-1.931,1.186a1.021,1.021,0,0,1-.513-.208c-.028.654-.07,1.253-.122,1.805A6.363,6.363,0,0,1,70.868,42.113ZM23.5,67.522c-.788.107-1.563-.4-2.314-.237-.6.128-.916.985-1.463,1.089a1.7,1.7,0,0,1-.981-.253,3.926,3.926,0,0,1,.609,1.808,1.436,1.436,0,0,1-.162.785,16.467,16.467,0,0,1,3.555-.81,13.5,13.5,0,0,1,2.529-.041c.333-.478.553-.762.553-.762a3.339,3.339,0,0,0-.731-2.314A3.548,3.548,0,0,1,23.5,67.522ZM21.9,44.137a5.011,5.011,0,0,1,2.376.648c1.948-1.231,1.369-2.687.1-4.312a3.655,3.655,0,0,0-1.791.261c-1.016.577-.767,2.352-2.062,2.465a1.413,1.413,0,0,1-.689-.142,12.157,12.157,0,0,1-1.539,1.263,4.819,4.819,0,0,1,.97-.208A20.8,20.8,0,0,1,21.9,44.137Zm2.959-21.331c-1.4-.608-1.349-1.866-1.153-3.144a10.625,10.625,0,0,0-2.152,1.213,29.59,29.59,0,0,0,.854,3.854,20.1,20.1,0,0,0,2.2-.386,2.131,2.131,0,0,1,1.412.137,5.646,5.646,0,0,1,1.873-1.4l1.063-.488A6.252,6.252,0,0,1,24.862,22.806Zm44.316,32.3a7.868,7.868,0,0,1,2.076-.963,7.378,7.378,0,0,1,3.4.114,4.107,4.107,0,0,0-1.023-3.091,8.979,8.979,0,0,1-1.718.76c-1.313.438-1.581-.139-2.754-.4-.756-.164-1.213.37-1.967.128a2.4,2.4,0,0,1-.591-.3,8.01,8.01,0,0,0,.151.791A24.326,24.326,0,0,0,69.178,55.107ZM60.6,15.894a1.144,1.144,0,0,1,.2-.407,10.646,10.646,0,0,0-6.4-2.444,4.239,4.239,0,0,1,.9.853c.7.869,1.786,1,2.551,1.837,1.928,2.123-1.943,2.124-1.978,3.662l.138-.173c.948-1.233,2.68-.443,4.431.71,0-.018,0-.035,0-.053a5.983,5.983,0,0,1,.091-1.837c.06-.228.354-.532.357-.749C60.888,16.742,60.46,16.434,60.6,15.894ZM71.641,64.7c-.683-.343-.913-1.163-1.489-1.476-.648-.355-1.425.2-2.1.359a1.633,1.633,0,0,1-.067-.9,3.66,3.66,0,0,0-1.233,2.842,7.313,7.313,0,0,1,.649.382c1.324.038,2.519,0,2.94.054a10.956,10.956,0,0,1,2.989.547,16.844,16.844,0,0,0,1.352-1.573A5.348,5.348,0,0,1,71.641,64.7Z" transform="translate(-9.018 -6.268)" fill="url(#linear-gradient-5)"/>
      </g>
      <path id="Path_7" data-name="Path 7" d="M65.871,86.015c-3.473-.827-6.41-1.928-8.014-5.374-2.538-5.512-1.336-10.747-1.336-16.535H36.354c0,5.786,1.2,11.022-1.336,16.535-1.6,3.445-4.542,4.547-8.014,5.374l-3.392,9.718c6.429,2.857,6.429,4,17.524,6,10.952.965,17.121-15.167,25-15.581Z" transform="translate(-10.469 -14.776)" fill="url(#linear-gradient-6)"/>
      <g id="Group_15" data-name="Group 15" transform="translate(15.203 5.125)">
        <g id="Group_4" data-name="Group 4" transform="translate(6.844 9.874)">
          <path id="Path_10" data-name="Path 10" d="M68.892,45.186a6.539,6.539,0,0,1-.138-3.307,16.734,16.734,0,0,0-.275-5.58c-.344-1.447-1.446-9.714-5.856-12.194,0,0-10.61-3.169-19.291.827l-7.372,6.82-2.2,4.271.551,6.89s-.689,5.1-.689,6.89,1.859,5.374,1.859,5.374c.413.62.552,1.309.965,1.928,0,0,4.2,7.236,10.2,10.886s11.506,2.344,14.26-1.515,7.855-13.09,8.2-18.326A13.979,13.979,0,0,0,68.892,45.186Z" transform="translate(-33.618 -22.912)" fill="#cc704f"/>
          <path id="Path_11" data-name="Path 11" d="M39.847,35.926a30.733,30.733,0,0,1,1.744-4.409c.827-1.47,0-7.073,13.688-6.981,0,0,6.338,0,8.176,1.01,0,0,4,3.377,4.742,10.568.013.12.023.241.034.363.643,7.441-8.909,1.378-8.909,1.378l-8.728.459Z" transform="translate(-34.656 -23.182)" fill="url(#linear-gradient-7)"/>
          <g id="Group_3" data-name="Group 3" transform="translate(0 17.807)">
            <ellipse id="Ellipse_1" data-name="Ellipse 1" cx="5.374" cy="4.823" rx="5.374" ry="4.823" transform="translate(15.158 12.528)" fill="url(#radial-gradient)"/>
            <path id="Path_12" data-name="Path 12" d="M74.408,48.96a6.539,6.539,0,0,1-.138-3.307c.006-.028.009-.059.014-.088a12.28,12.28,0,0,0-5.423,4.666c-3,4.56-2.821,9.971.394,12.085a5.065,5.065,0,0,0,1.483.657c1.958-3.829,3.68-8.081,3.876-11.05A14.067,14.067,0,0,0,74.408,48.96Z" transform="translate(-39.134 -44.493)" fill="url(#radial-gradient-2)"/>
            <path id="Path_13" data-name="Path 13" d="M42.085,63.082c3.6-1.366,4.945-6.609,3.008-11.711s-6.424-8.131-10.022-6.765a5.056,5.056,0,0,0-.878.439l.114,1.427s-.689,5.1-.689,6.89,1.859,5.374,1.859,5.374c.413.62.552,1.309.965,1.928,0,0,.531.914,1.483,2.254A5.59,5.59,0,0,0,42.085,63.082Z" transform="translate(-33.618 -44.278)" fill="url(#radial-gradient-3)"/>
          </g>
          <path id="Path_14" data-name="Path 14" d="M62.623,24.1s-10.61-3.169-19.291.827l-7.372,6.82-2.2,4.271.551,6.89s-.689,5.1-.689,6.89,1.859,5.374,1.859,5.374c.413.62.552,1.309.965,1.928a39.8,39.8,0,0,0,4.378,5.885,70.871,70.871,0,0,1-3.208-9.742A38.352,38.352,0,0,1,37.2,42.5s-1.929-4.685.689-7.441A31.387,31.387,0,0,1,43.4,30.511s-.827-4.409,1.792-5.787a37.018,37.018,0,0,1,17.775,0,23.387,23.387,0,0,1,5.1,11.988l.678,1.155a14.291,14.291,0,0,0-.265-1.568C68.135,34.851,67.034,26.584,62.623,24.1Z" transform="translate(-33.618 -22.912)" fill="url(#linear-gradient-8)"/>
        </g>
        <path id="Path_15" data-name="Path 15" d="M38.513,44.439s-2.343-4.271,1.309-6.614c0,0,4-1.515,6.752-.345a20.925,20.925,0,0,1,4.479,2.549s1.033,4.685-.827,6.338l-4.754.138s-3.376-.689-3.582-.689-1.723-.207-1.723-.207l-1.033-.345Z" transform="translate(-27.466 -15.391)" fill="url(#linear-gradient-9)"/>
        <path id="Path_16" data-name="Path 16" d="M62.64,46.375s-1.032-4.271.277-6.338l2-2,2.343-.965h1.859l1.378.275,1.1.552L72.905,39s1.1,5.511-1.792,6.683-7.1.689-7.1.689H62.64Z" transform="translate(-31.545 -15.397)" fill="url(#linear-gradient-10)"/>
        <g id="Group_6" data-name="Group 6" transform="translate(22.181 30.724)">
          <g id="Group_5" data-name="Group 5" transform="translate(0.233)">
            <path id="Path_17" data-name="Path 17" d="M52.3,60.025a2.8,2.8,0,0,1,2.068-.414c1.447.138,2.066,1.172,3.789.964s2.136-.964,2.136-.964,1.378-.483,1.79.276c0,0-.551,1.1-.9,1.239a4.4,4.4,0,0,1-3.858,1.928c-2.688-.068-4-.9-4.685-2A2.377,2.377,0,0,1,52.3,60.025Z" transform="translate(-52.301 -49.85)" fill="url(#linear-gradient-11)"/>
            <path id="Path_18" data-name="Path 18" d="M59.344,57.755s-2.9.653-2.924-2.876-.314-6.2-.314-6.2l3.782-.748a33.7,33.7,0,0,0,.587,6.174C61,55.846,61.512,57.385,59.344,57.755Z" transform="translate(-52.935 -47.929)" fill="url(#linear-gradient-12)"/>
            <path id="Path_19" data-name="Path 19" d="M55.732,55.276s2.894-1.583,4.96,0l.069-.55a5.268,5.268,0,0,0-5.235.138Z" transform="translate(-52.838 -48.961)" fill="#cc704f"/>
            <path id="Path_20" data-name="Path 20" d="M53.9,57.663c-.5-1.287-1.709,1.033-1.414,1.208C53.168,59.281,54.15,58.319,53.9,57.663Z" transform="translate(-52.323 -49.486)" fill="url(#linear-gradient-13)"/>
            <path id="Path_21" data-name="Path 21" d="M63.8,59.018c-.775-.045-.816-1.451-.911-2.016.668.262.818,1.256.957,1.832Z" transform="translate(-54.066 -49.441)" fill="url(#linear-gradient-14)"/>
            <path id="Path_22" data-name="Path 22" d="M56,61a5.256,5.256,0,0,0-1.757-.447C54.623,61.549,56,61,56,61Zm4.65-.413L60.135,61l-.207.173c1.136.069,1.205-.62,1.205-.62Z" transform="translate(-52.625 -50.032)" fill="#010101"/>
          </g>
          <path id="Path_23" data-name="Path 23" d="M52.208,59.754a3.775,3.775,0,0,1,.544-2.025.017.017,0,0,0-.03-.018,3.423,3.423,0,0,0-.683,2.134c.126.84.836,1.121,1.593,1.253,0,0,0-.005,0-.005A1.6,1.6,0,0,1,52.208,59.754Zm2.582.338a2.8,2.8,0,0,0-1.848.03c-.01,0-.005.019,0,.018a3.17,3.17,0,0,1,1.8.1,9.652,9.652,0,0,1,1.617.826A.043.043,0,0,0,56.418,61,3.9,3.9,0,0,0,54.79,60.093Zm6.5.023a1.27,1.27,0,0,0-1.262-.02,3.335,3.335,0,0,0,.307-.717c.006-.021-.025-.034-.035-.016A3.233,3.233,0,0,1,58.87,61a3.382,3.382,0,0,1-2.339.144.022.022,0,0,0-.011.043,3.465,3.465,0,0,0,2.35-.027,2.343,2.343,0,0,0,.905-.7l.017-.005a3.039,3.039,0,0,1,.615-.327,1.412,1.412,0,0,1,.867.018C61.3,60.154,61.3,60.127,61.289,60.116Zm.5-2.481a.032.032,0,0,0-.058.025,4.434,4.434,0,0,1,.243,1.5,2.161,2.161,0,0,1-.909,1.58c-.017.011,0,.038.016.026a2.056,2.056,0,0,0,1.036-1.411A2.607,2.607,0,0,0,61.79,57.635Z" transform="translate(-52.022 -49.543)" fill="url(#linear-gradient-15)"/>
        </g>
        <path id="Path_24" data-name="Path 24" d="M35.826,55.181c.393.616.608,1.324.979,1.954.092.156.188.31.283.463.492.784,1.018,1.546,1.564,2.293a34.049,34.049,0,0,0,6.309,6.7c2.8,2.2,6.273,3.85,9.91,3.535a8.969,8.969,0,0,0,4.164-1.448,10.115,10.115,0,0,0,2.744-2.9,63.068,63.068,0,0,0,4.429-7.761,33.8,33.8,0,0,0,3.121-8.568,11.934,11.934,0,0,0,.08-3.547c-.088-.756-.333-1.485-.4-2.244a13.738,13.738,0,0,1,.219-2.407,23.121,23.121,0,0,0-.772-7.014,23.5,23.5,0,0,0-2.507-7.065,8.857,8.857,0,0,0-2.444-2.784,3.4,3.4,0,0,0-1.331-.536,35.742,35.742,0,0,0-7.133-.958A25.757,25.757,0,0,0,44.54,24.534c-.288.115-.573.24-.854.37-.031.013,0,.058.027.045a25.054,25.054,0,0,1,10.845-2,35.43,35.43,0,0,1,7.484.941,3.736,3.736,0,0,1,1.373.515,8.819,8.819,0,0,1,2.6,3.012,24.215,24.215,0,0,1,2.443,7.126A20.082,20.082,0,0,1,69.07,42a6.525,6.525,0,0,0-.059,2.137c.132.843.349,1.648.4,2.505a12.177,12.177,0,0,1-.284,3.492,38.5,38.5,0,0,1-3.458,8.839,58.576,58.576,0,0,1-4.357,7.385,9.058,9.058,0,0,1-8.352,3.714c-3.816-.34-7.185-2.619-9.9-5.185a37.731,37.731,0,0,1-4.9-5.749q-.594-.843-1.139-1.719c-.066-.107-.13-.212-.193-.319-.367-.625-.578-1.327-.969-1.937a.022.022,0,1,0-.038.023Z" transform="translate(-27.142 -13.031)" fill="#a04525"/>
        <g id="Group_7" data-name="Group 7" transform="translate(17.152 45.15)">
          <path id="Path_25" data-name="Path 25" d="M47.966,67.559s2.312,1.763,3.33,2.675a6.5,6.5,0,0,0,5,1.81c2.414-.165,3.738-.969,4.235-1.857a31.4,31.4,0,0,1,2.605-3.193s-2.419.44-2.626.437-3.583.007-3.859.07Z" transform="translate(-46.317 -65.532)" fill="#a93f29"/>
          <path id="Path_26" data-name="Path 26" d="M60.509,67.433c-.206-.005-3.583.007-3.859.07l-8.683.057s1.243.948,2.307,1.813c1.009-.118,7.487-.842,10.965-.274l.073.012C62.1,68.126,63.135,67,63.135,67S60.716,67.435,60.509,67.433ZM52.131,70.9a6.3,6.3,0,0,0,4.163,1.143c2.414-.165,3.738-.969,4.235-1.857A12.477,12.477,0,0,1,56.787,71.5,10.342,10.342,0,0,1,52.131,70.9Z" transform="translate(-46.317 -65.532)" fill="#973323"/>
          <path id="Path_27" data-name="Path 27" d="M52.717,70.137s5.184-.945,8.341-.2l-.428.749s-2.509,1.612-6.9.64Z" transform="translate(-47.108 -65.975)" fill="url(#radial-gradient-4)"/>
          <path id="Path_28" data-name="Path 28" d="M63.091,66.293c-.626.333-1.253.737-2-.035a3.967,3.967,0,0,0-2.739-1.012,5.926,5.926,0,0,0-1.806.865,4.219,4.219,0,0,0-2.607-.666c-1.723.039-4.848,1.432-5.815,1.484a3.981,3.981,0,0,1-2.121-.863c2.091,2.586,5.967,1.618,8.857,1.807l.194.012.148.132c.479.214,1.03.225,1.509.438a2.257,2.257,0,0,0,1.068-.4l.042,0c1.391-.735,2.207-.1,3.316-.5a5,5,0,0,0,3.07-2.222A4.214,4.214,0,0,1,63.091,66.293Z" transform="translate(-45.99 -65.24)" fill="#973323"/>
          <path id="Path_29" data-name="Path 29" d="M57.173,68.23a4.372,4.372,0,0,0-.737-.207,3.977,3.977,0,0,1-.663-.185l-.115-.1a.29.29,0,0,0-.165-.069l-.194-.012c-.28-.018-.588-.027-.941-.027-.432,0-.883.014-1.321.027h-.028c-.447.013-.909.027-1.372.027a9.248,9.248,0,0,1-3.123-.418l.045,0a10.936,10.936,0,0,0,2.132-.578,15.645,15.645,0,0,1,3.674-.907H54.5a3.967,3.967,0,0,1,2.3.608.279.279,0,0,0,.172.059.282.282,0,0,0,.154-.048,5.432,5.432,0,0,1,1.678-.818c.042,0,.088-.006.138-.006a3.744,3.744,0,0,1,2.378.935,1.5,1.5,0,0,0,1.062.527,5.77,5.77,0,0,1-.89.327l-.019.006a2.38,2.38,0,0,1-.816.126c-.134,0-.268-.007-.409-.013s-.3-.014-.452-.014a3.408,3.408,0,0,0-1.609.377.264.264,0,0,0-.134.048,2,2,0,0,1-.872.343Z" transform="translate(-46.408 -65.295)" fill="url(#linear-gradient-16)"/>
          <path id="Path_30" data-name="Path 30" d="M54.862,67.826c-2.963-.318-6.614.829-8.846-1.756-.015-.018-.037.007-.024.023a5.684,5.684,0,0,0,4,1.878c1.612.172,3.254-.044,4.87-.02A.063.063,0,0,0,54.862,67.826Zm9.317-2.48a5.12,5.12,0,0,1-1.343,1.376,5.869,5.869,0,0,1-1.721.779,5.77,5.77,0,0,1-1.663.113,2.889,2.889,0,0,0-1.328.3,1.64,1.64,0,0,0,.217-.285c.017-.029-.018-.073-.048-.05a3.871,3.871,0,0,1-1.4.77,1.538,1.538,0,0,1-.747-.079,6.717,6.717,0,0,1-.936-.244c-.017-.007-.023.018-.007.025a6.205,6.205,0,0,0,1.046.3c.318.079.478.243.8.173a2.169,2.169,0,0,0,.978-.51A4.665,4.665,0,0,1,59.8,67.8a4.31,4.31,0,0,0,1.635-.221,4.626,4.626,0,0,0,2.8-2.2A.033.033,0,0,0,64.178,65.346Z" transform="translate(-45.987 -65.255)" fill="#69291c"/>
        </g>
        <path id="Path_31" data-name="Path 31" d="M37.973,39.161A8.184,8.184,0,0,1,42.2,37.416a10.413,10.413,0,0,1,6.522,1.838,7.973,7.973,0,0,0,2.389.643s-.828-2.021-1.47-2.389S42.566,34.017,37.973,39.161Z" transform="translate(-27.5 -15.257)" fill="url(#linear-gradient-17)"/>
        <path id="Path_32" data-name="Path 32" d="M73.191,39.161a5.834,5.834,0,0,0-3.28-1.745,6.871,6.871,0,0,0-5.063,1.838,5.171,5.171,0,0,1-1.853.643,7.843,7.843,0,0,1,1.141-2.389C64.634,37.14,69.625,34.017,73.191,39.161Z" transform="translate(-31.668 -15.257)" fill="url(#linear-gradient-18)"/>
        <g id="Group_8" data-name="Group 8">
          <path id="Path_33" data-name="Path 33" d="M27.519,75.019a21.938,21.938,0,0,0,5.236,2.756c2.113.551,5.052,1.47,6.246.183s1.1-.551,1.194-1.286-1.746-2.3-2.664-2.2a.834.834,0,0,0-.827.918s.183-.827.918-.46,1.837,1.471,1.285,2.022a4.417,4.417,0,0,1-4.042.367c-1.562-.643-3.949-2.572-2.848-3.858s2.939-3.674,3.031-5.879a13.982,13.982,0,0,0-5.511-3.216s1.1-4.96,3.307-7.348,3.031-4.225,3.215-5.511-3.858-3.032-2.572-5.7,2.388-4.869,2.2-5.6-2.755-4.869.183-7.349,5.236-4.318,5.42-4.869.827-6.981,2.756-9.921,5.328-4.686,7.165-3.859,3.032,3.95,3.032,3.95a7.147,7.147,0,0,1,.459,2.48,6.263,6.263,0,0,0-.184-3.4c-.643-1.378-2.572-3.674-3.4-3.949L47.268,12l-.826.184.092-.735s-3.858-.735-5.145-.184-3.307,3.215-5.695,4.594S29.907,20,28.621,22.567A24.289,24.289,0,0,0,29.448,29c.827,2.205,2.48,5.328,1.928,7.166s-3.031,4.776-4.134,6.981c0,0,1.1,1.378,2.48,2.94s1.928,2.3.459,4.776-4.5,5.235-4.776,10.1c0,0,4.685,5.145,4.5,8.451A11.85,11.85,0,0,0,27.519,75.019Z" transform="translate(-25.406 -11.063)" fill="url(#linear-gradient-19)"/>
          <path id="Path_34" data-name="Path 34" d="M38.137,21.2c-1.113-.942-.479-3.045-2.5-2.884.258-.823.848-1.543,1.183-2.337a10.869,10.869,0,0,1-1.06.7c-2.3,1.327-5.533,3.929-6.919,6.416a6.959,6.959,0,0,1,5.414-.869,4.431,4.431,0,0,1,3.259,3c.3.732.243,1.043.865,1.378.454.244,1.275,0,1.79.246a2.678,2.678,0,0,1,1.274,1.565,42.629,42.629,0,0,1,1.68-7.455C41.588,21.768,39.427,22.286,38.137,21.2ZM27.312,43.961s.1.123.269.333c2.4-.528,5.061-.418,6.526,1.2.368-.763.7-1.469.976-2.091-1.157.462-2.4.627-3.181-.017-.562-.463-.256-1.5-.71-1.873s-1.236-.071-1.746-.05a4.188,4.188,0,0,1,.365-1.468A44.352,44.352,0,0,0,27.312,43.961Zm3.6,17.218c.207-.485.437-.973.692-1.445a1.659,1.659,0,0,1-1.769-.988c-.883-1.965.288-2.349-2.319-2.268a3.328,3.328,0,0,1,.083-.943,13.736,13.736,0,0,0-1.783,4c.043-.005.087-.008.131-.009a8.385,8.385,0,0,1,2.27.242A5.1,5.1,0,0,1,30.912,61.179Zm3.235,7.211c-1.378.281-1.847-1.024-2.8-.983-1.26.054-.963,1.384-1.563,1.324a4.746,4.746,0,0,1,.192,1.5l-.056.074a4.253,4.253,0,0,1,2.643-.865A2.7,2.7,0,0,1,34.6,70.469,5.982,5.982,0,0,0,35.12,68.4s-.093-.091-.264-.243A3.184,3.184,0,0,1,34.148,68.39Z" transform="translate(-25.474 -11.882)" fill="url(#linear-gradient-20)"/>
          <path id="Path_35" data-name="Path 35" d="M37.358,22.984c-1.562-1.53-2.06-2.3-4.389-2.532a2.347,2.347,0,0,1,.324-1.554,21.2,21.2,0,0,0-3.254,3.086,11.108,11.108,0,0,1,5.527.418c1.408.543,3.794,2.185,3.879,3.844a3.981,3.981,0,0,1,2.531-.039c.117-.626.255-1.3.418-1.993A5.28,5.28,0,0,1,37.358,22.984Zm-2.8,22.223.188-.4a9.331,9.331,0,0,1-3.172-.67c-1.645-.657-1.69-2.1-2.861-1.89-.38.577-.74,1.144-1.042,1.679a17.61,17.61,0,0,1,3.489.387A16.073,16.073,0,0,1,34.554,45.207ZM31.492,60.583a5.7,5.7,0,0,1-3.1-.867c-.843-.773-1.042-1.818-1.666-1.977-.161.338-.311.691-.447,1.058a2.223,2.223,0,0,1,.718.148c.71.287.912.959,1.54,1.318a2.832,2.832,0,0,0,.324.157q.236.074.449.156a11.238,11.238,0,0,1,1.911.571C31.309,60.957,31.4,60.769,31.492,60.583Zm1.744,8.689c-.57-.108-1.3-.825-1.823-.782s-.592.61-.927.95a1.8,1.8,0,0,1-.5.36c.022.127.038.253.05.377a5.157,5.157,0,0,1,2.493-.649A7.189,7.189,0,0,1,35.016,70a5.445,5.445,0,0,0,.163-.851A3.866,3.866,0,0,1,33.236,69.272Z" transform="translate(-25.552 -12.369)" fill="url(#linear-gradient-21)"/>
          <path id="Path_36" data-name="Path 36" d="M29.374,70.7a10.25,10.25,0,0,0-1.56,4.384,21.938,21.938,0,0,0,5.236,2.756c1.758.458,4.086,1.17,5.507.657l0-.014s-6.246-.276-9.829-3.4C28.549,73.977,28.549,73.151,29.374,70.7Zm5.177-26.416a5.951,5.951,0,0,0-1.685,3.7s-.092,1.837-2.2,4.594-3.215,4.776-3.49,7.166a12.442,12.442,0,0,1,2.664-5.053c1.918-2.093,2.925-3.109,3.652-5.485,1.1,1.092,3.085,2.056,1.086,6.153a8.723,8.723,0,0,0,1.784-3.79c.183-1.287-3.858-3.032-2.572-5.7C34.051,45.315,34.31,44.783,34.551,44.279Zm6.4-17.885c-.459,2.113-3.215,3.674-5.145,5.879s-1.1,3.674-1.1,3.674l.07.022a3.842,3.842,0,0,1,1.4-3.054c2.94-2.48,5.236-4.318,5.42-4.869s.827-6.981,2.756-9.921a10.086,10.086,0,0,1,3.834-3.454,3.124,3.124,0,0,0-.344.054C43.246,15.738,41.409,24.28,40.949,26.394Zm6.614-14.332-.826.184.092-.735s-.184-.035-.486-.084A17.423,17.423,0,0,0,42.6,15.921c-1.378,2.572-2.205,5.42-5.328,8.267s-5.236,5.6-5.145,9.278a4.19,4.19,0,0,0,.533,2.214,13.323,13.323,0,0,1-.348,1.644,12.706,12.706,0,0,1-1.929,3.215,7.363,7.363,0,0,0,3.043-3.719c.512.859,1.017,2.22,1.183,5.464a11.384,11.384,0,0,0-.643-5.511c-1.1-2.573-2.572-4.869,1.01-9.186s5.42-5.7,6.43-7.9,3.124-5.7,5.144-6.522a6.7,6.7,0,0,1,3.019-.433ZM35.346,67.639a14.6,14.6,0,0,0-5.032-3.089c.9.4,3.11,1.816,3.654,3,1.1,2.388-2.389,6.155-2.389,6.155s-.57,2.293,3.157,3.477c-1.527-.778-3.428-2.487-2.421-3.661C33.417,72.231,35.255,69.843,35.346,67.639Z" transform="translate(-25.7 -11.124)" fill="url(#linear-gradient-22)"/>
        </g>
        <g id="Group_11" data-name="Group 11" transform="translate(11.038 26.539)">
          <path id="Path_37" data-name="Path 37" d="M39.546,46.271c.385-1.587,1.852-2.591,3.728-2.929a7.543,7.543,0,0,1,2.574-.012,5.8,5.8,0,0,1,3.029,1.612c.017.014.041-.007.026-.022a5.875,5.875,0,0,0-3.027-1.672,8.226,8.226,0,0,0-2.651-.048,5.5,5.5,0,0,0-2.43.954,3.179,3.179,0,0,0-1.259,2.116s.008,0,.01,0Z" transform="translate(-38.798 -42.943)" fill="#7c3d27"/>
          <path id="Path_38" data-name="Path 38" d="M48.359,45.763a6.134,6.134,0,0,0-3.916-1.956,2.135,2.135,0,0,1,.078-.9,1.568,1.568,0,0,0-.293.888,5.845,5.845,0,0,0-.688.017,4.6,4.6,0,0,0-1.228.268,2.134,2.134,0,0,1-.215-.96,1.516,1.516,0,0,0,.008,1.044A4.058,4.058,0,0,0,40.874,45a2.048,2.048,0,0,1-1.211-1.026,1.955,1.955,0,0,0,.969,1.283,4.347,4.347,0,0,0-.642.988,2.444,2.444,0,0,1-1.34-.835A2.165,2.165,0,0,0,39.9,46.557c2.524,3.213,7.531,1.568,7.531,1.568l2.8-.708C49.223,47.122,48.791,46.117,48.359,45.763Z" transform="translate(-38.651 -42.908)" fill="#010101"/>
          <path id="Path_39" data-name="Path 39" d="M40.942,47.025c1.438,2.283,5.753,1.733,8.055,1.024l1.631-.393c-1.822-.709-2.781-2.6-4.986-2.994-2.4-.394-4.028.473-4.891,2.127Z" transform="translate(-39.001 -43.185)" fill="#fff"/>
          <g id="Group_10" data-name="Group 10" transform="translate(3.168 1.383)">
            <g id="Group_9" data-name="Group 9">
              <path id="Path_40" data-name="Path 40" d="M47.1,46.495a2.117,2.117,0,0,0-.648-1.515,3.4,3.4,0,0,0-.884-.318,4.068,4.068,0,0,0-2.273.144,2.138,2.138,0,0,0-.844,1.688,2.22,2.22,0,0,0,1.773,2.124,7.049,7.049,0,0,0,.843.046A2.238,2.238,0,0,0,47.1,46.495Z" transform="translate(-42.452 -44.567)" fill="url(#linear-gradient-23)"/>
              <path id="Path_41" data-name="Path 41" d="M42.772,46.495a2.061,2.061,0,0,0,4.115,0,1.964,1.964,0,0,0-1.578-1.883,4.706,4.706,0,0,0-.705-.043A1.985,1.985,0,0,0,42.772,46.495Z" transform="translate(-42.505 -44.567)" fill="url(#linear-gradient-24)"/>
              <ellipse id="Ellipse_2" data-name="Ellipse 2" cx="1.214" cy="1.143" rx="1.214" ry="1.143" transform="translate(1.11 0.784)" fill="#010101"/>
              <ellipse id="Ellipse_3" data-name="Ellipse 3" cx="0.858" cy="0.807" rx="0.858" ry="0.807" transform="translate(1.467 1.121)" fill="url(#linear-gradient-25)"/>
              <ellipse id="Ellipse_4" data-name="Ellipse 4" cx="0.498" cy="0.469" rx="0.498" ry="0.469" transform="translate(1.827 0.508)" fill="#fff"/>
              <ellipse id="Ellipse_5" data-name="Ellipse 5" cx="0.239" cy="0.226" rx="0.239" ry="0.226" transform="translate(2.085 2.818)" fill="#fff"/>
            </g>
          </g>
          <path id="Path_42" data-name="Path 42" d="M50.63,47.631c-1.853-.841-2.869-2.739-5.073-3.084a5.3,5.3,0,0,0-2.989.325,3.916,3.916,0,0,0-1.832,1.9c-.006.012.016.023.023.011a4.161,4.161,0,0,1,1.908-1.768,5.19,5.19,0,0,1,3.138-.244c2.043.415,2.954,2.225,4.815,2.88C50.631,47.65,50.641,47.636,50.63,47.631Zm-5.885,1.012a.064.064,0,0,0-.065-.039.066.066,0,0,0-.064.036,4.445,4.445,0,0,1-3.671-1.633c0-.005-.012,0-.008,0a4.279,4.279,0,0,0,3.68,1.675.075.075,0,0,0,.125,0A14,14,0,0,0,49,48.035s0-.008,0-.008A14.046,14.046,0,0,1,44.745,48.642Z" transform="translate(-38.998 -43.168)" fill="#010101"/>
        </g>
        <g id="Group_14" data-name="Group 14" transform="translate(31.057 26.502)">
          <path id="Path_43" data-name="Path 43" d="M72.135,46.249A3.824,3.824,0,0,0,68.984,43.3a5.365,5.365,0,0,0-2.177-.012,4.721,4.721,0,0,0-2.559,1.622c-.014.016-.035-.006-.022-.021a4.826,4.826,0,0,1,2.559-1.683,5.84,5.84,0,0,1,2.24-.049,4.263,4.263,0,0,1,2.054.961,3.35,3.35,0,0,1,1.064,2.129c0,.005-.008.006-.008,0Z" transform="translate(-62.93 -42.899)" fill="#7c3d27"/>
          <path id="Path_44" data-name="Path 44" d="M64.311,45.738a5.017,5.017,0,0,1,3.311-1.968,2.569,2.569,0,0,0-.066-.905,1.79,1.79,0,0,1,.247.894,4.308,4.308,0,0,1,.582.017,3.36,3.36,0,0,1,1.038.269,2.512,2.512,0,0,0,.183-.967,1.8,1.8,0,0,1-.007,1.051,3.482,3.482,0,0,1,1.041.839,1.9,1.9,0,0,0,1.023-1.033,1.958,1.958,0,0,1-.818,1.292,4.544,4.544,0,0,1,.542,1,2.09,2.09,0,0,0,1.133-.842,1.99,1.99,0,0,1-1.051,1.157C69.333,49.77,65.1,48.116,65.1,48.116L62.73,47.4C63.582,47.106,63.946,46.094,64.311,45.738Z" transform="translate(-62.681 -42.864)" fill="#010101"/>
          <path id="Path_45" data-name="Path 45" d="M70.869,47.007c-1.215,2.3-4.863,1.743-6.808,1.031l-1.378-.4c1.541-.713,2.35-2.616,4.215-3.013a3.428,3.428,0,0,1,4.133,2.141Z" transform="translate(-62.674 -43.142)" fill="#fff"/>
          <g id="Group_13" data-name="Group 13" transform="translate(1.736 1.391)">
            <g id="Group_12" data-name="Group 12">
              <path id="Path_46" data-name="Path 46" d="M69.217,46.472a2.2,2.2,0,0,0-1.153-1.928,3.417,3.417,0,0,0-1.047.084,4.727,4.727,0,0,0-2.26,1.786c0,.02,0,.039,0,.059a2.2,2.2,0,0,0,1.423,2.053,6.832,6.832,0,0,0,1.1.129A2.212,2.212,0,0,0,69.217,46.472Z" transform="translate(-64.755 -44.534)" fill="url(#linear-gradient-26)"/>
              <path id="Path_47" data-name="Path 47" d="M67.038,48.429a1.949,1.949,0,0,0,.4-3.861c-.121.016-.243.037-.368.066a4,4,0,0,0-1.963,1.443,1.924,1.924,0,0,0-.043.4A1.962,1.962,0,0,0,67.038,48.429Z" transform="translate(-64.806 -44.539)" fill="url(#linear-gradient-27)"/>
              <ellipse id="Ellipse_6" data-name="Ellipse 6" cx="1.165" cy="1.152" rx="1.165" ry="1.152" transform="translate(1.067 0.787)" fill="#010101"/>
              <ellipse id="Ellipse_7" data-name="Ellipse 7" cx="0.823" cy="0.813" rx="0.823" ry="0.813" transform="translate(1.408 1.125)" fill="url(#linear-gradient-28)"/>
              <ellipse id="Ellipse_8" data-name="Ellipse 8" cx="0.478" cy="0.472" rx="0.478" ry="0.472" transform="translate(1.753 0.512)" fill="#fff"/>
              <circle id="Ellipse_9" data-name="Ellipse 9" cx="0.23" cy="0.23" r="0.23" transform="translate(2.001 2.834)" fill="#fff"/>
            </g>
          </g>
          <path id="Path_48" data-name="Path 48" d="M62.676,47.616c1.566-.847,2.426-2.758,4.288-3.106a3.824,3.824,0,0,1,2.526.328,3.712,3.712,0,0,1,1.548,1.908c.006.012-.013.023-.018.011a3.85,3.85,0,0,0-1.613-1.779,3.722,3.722,0,0,0-2.653-.245c-1.728.418-2.5,2.239-4.071,2.9C62.675,47.636,62.666,47.621,62.676,47.616Zm4.975,1.019a.054.054,0,0,1,.055-.039.053.053,0,0,1,.053.036,3.542,3.542,0,0,0,3.1-1.645s.01,0,.008,0a3.427,3.427,0,0,1-3.111,1.686.054.054,0,0,1-.053.036.053.053,0,0,1-.053-.033,10.122,10.122,0,0,1-3.6-.657s0-.008,0-.007A10.118,10.118,0,0,0,67.651,48.636Z" transform="translate(-62.672 -43.125)" fill="#010101"/>
        </g>
      </g>
    </g>
  </g>
</svg>
